<svg xmlns="http://www.w3.org/2000/svg" viewBox="0 0 1366 768"><style><![CDATA[.Ha{fill:#006e6e}.Hb{stroke:#006e6e}.Hc{fill:#86aaa9}.Hd{stroke:#86aaa9}.He{fill:#047575}.Hf{stroke:#047575}.Hg{fill:#99cbca}.Hh{stroke:#99cbca}.Hi{fill:#c6eded}.Hj{stroke:#c6eded}.Hk{fill:#005d5d}.Hl{stroke:#005d5d}]]></style><g stroke-width="1.51"><path d="M699 382l-76 86 102-25-26-61z" fill="#30a5a5" stroke="#30a5a5"/><path d="M699 382l-77 4 1 82 76-86z" fill="#3aa" stroke="#3aa"/><path d="M725 443l91-36-117-25 26 61z" fill="#31a0a0" stroke="#31a0a0"/><path d="M703 562l75-110-53-9-22 119z" fill="#289d9d" stroke="#289d9d"/><path d="M699 382l-34-69-43 73 77-4z" fill="#36b2b2" stroke="#36b2b2"/><path d="M752 322l-87-9 34 69 53-60z" fill="#36b1b1" stroke="#36b1b1"/><path d="M623 468l80 94 22-119-102 25z" fill="#28a2a2" stroke="#28a2a2"/><path d="M558 551l64 1 1-84-65 83z" fill="#28a8a8" stroke="#28a8a8"/><path d="M622 386l-80 75 81 7-1-82z" fill="#35adad" stroke="#35adad"/><path d="M534 380l8 81 80-75-88-6z" fill="#3eb2b2" stroke="#3eb2b2"/><path d="M622 552l81 10-80-94-1 84z" fill="#26a3a3" stroke="#26a3a3"/><path d="M816 407l-64-85-53 60 117 25z" fill="#32a7a7" stroke="#32a7a7"/><path d="M569 324l-35 56 88 6-53-62z" fill="#3eb9b9" stroke="#3eb9b9"/><path d="M665 313l-96 11 53 62 43-73z" fill="#38b9b9" stroke="#38b9b9"/><path d="M778 452l38-45-91 36 53 9z" fill="#2e9d9d" stroke="#2e9d9d"/><path d="M882 477l-66-70-38 45 104 25z" fill="#289b9b" stroke="#289b9b"/><path d="M542 461l16 90 65-83-81-7z" fill="#33acac" stroke="#33acac"/><path d="M622 552l45 68 36-58-81-10z" fill="#229c9c" stroke="#229c9c"/><path d="M548 648l119-28-45-68-74 96z" fill="#229f9f" stroke="#229f9f"/><path d="M703 562l117 4-42-114-75 110z" fill="#229898" stroke="#229898"/><path d="M667 620l33-2 3-56-36 58z" fill="#209898" stroke="#209898"/><path d="M732 212l-86 9 19 92 67-101z" fill="#55c0c0" stroke="#55c0c0"/><path d="M665 313l-19-92-77 103 96-11z" fill="#4bc1c1" stroke="#4bc1c1"/><path d="M816 407l-9-114-55 29 64 85z" fill="#31abab" stroke="#31abab"/><path d="M534 380l-65 64 73 17-8-81z" fill="#46b3b3" stroke="#46b3b3"/><path d="M542 461l-56 80 72 10-16-90z" fill="#3baeae" stroke="#3baeae"/><path d="M468 377l1 67 65-64-66-3z" fill="#4db9b9" stroke="#4db9b9"/><path d="M700 618l120-52-117-4-3 56z" fill="#1f9595" stroke="#1f9595"/><path d="M465 283l3 94 66 3-69-97z" fill="#50c3c3" stroke="#50c3c3"/><path d="M732 212l-67 101 87 9-20-110z" fill="#48b8b8" stroke="#48b8b8"/><path d="M569 324l-104-41 69 97 35-56z" fill="#4dc3c3" stroke="#4dc3c3"/><path d="M558 551l-10 97 74-96-64-1z" fill="#2ba4a4" stroke="#2ba4a4"/><path d="M469 444l17 97 56-80-73-17z" fill="#44b3b3" stroke="#44b3b3"/><path d="M820 566l40-39-82-75 42 114z" fill="#1e9898" stroke="#1e9898"/><path d="M816 407l94-46-103-68 9 114z" fill="#2da7a7" stroke="#2da7a7"/><path d="M860 527l22-50-104-25 82 75z" fill="#209a99" stroke="#209a99"/><path d="M807 293l-75-81 20 110 55-29z" fill="#49b5b5" stroke="#49b5b5"/><path d="M486 541l11 60 61-50-72-10z" fill="#3aabab" stroke="#3aabab"/><path d="M497 601l51 47 10-97-61 50z" fill="#34a5a5" stroke="#34a5a5"/><path d="M702 685l117-54-119-13 2 67z" fill="#1d8d8d" stroke="#1d8d8d"/><path d="M646 221l-60-24-17 127 77-103z" fill="#59c8c8" stroke="#59c8c8"/><path d="M632 117l-46 80 60 24-14-104z" fill="#6dcccc" stroke="#6dcccc"/><path d="M700 618l119 13 1-65-120 52z" fill="#1c9090" stroke="#1c9090"/><path d="M820 566l64 34-24-73-40 39z" fill="#169393" stroke="#169393"/><path d="M860 527l109 30-87-80-22 50z" fill="#159595" stroke="#159595"/><path d="M702 685l-2-67-33 2 35 65z" fill="#1f9292" stroke="#1f9292"/><path d="M586 197l-121 86 104 41 17-127z" fill="#5dcaca" stroke="#5dcaca"/><path d="M398 457l26 74 45-87-71 13z" fill="#51b7b7" stroke="#51b7b7"/><path d="M882 477l28-116-94 46 66 70z" fill="#289c9c" stroke="#289c9c"/><path d="M807 293l14-81h-89l75 81z" fill="#54b9b9" stroke="#54b9b9"/><path d="M652 713l50-28-35-65-15 93z" fill="#1e9090" stroke="#1e9090"/><path d="M469 444l-45 87 62 10-17-97z" fill="#48b5b5" stroke="#48b5b5"/><path d="M486 541l-62-10 73 70-11-60z" fill="#43afaf" stroke="#43afaf"/><path d="M398 457l71-13-1-67-70 80z" fill="#53b9b9" stroke="#53b9b9"/><path d="M885 202l-64 10-14 81 78-91z" fill="#52b8b8" stroke="#52b8b8"/><path d="M732 212l-36-94-50 103 86-9z" fill="#69c4c4" stroke="#69c4c4"/><path d="M381 363l17 94 70-80-87-14z" fill="#5abebe" stroke="#5abebe"/><path d="M819 631l65-31-64-34-1 65z" fill="#158f8f" stroke="#158f8f"/><path d="M882 477l82-45-54-71-28 116z" fill="#249a9a" stroke="#249a9a"/><path d="M910 361l5-56-108-12 103 68z" fill="#32acac" stroke="#32acac"/><path d="M465 283l-41 11 44 83-3-94z" fill="#5dcaca" stroke="#5dcaca"/><path d="M412 220l12 74 41-11-53-63z" fill="#6fd3d3" stroke="#6fd3d3"/><path d="M548 648l104 65 15-93-119 28z" fill="#209696" stroke="#209696"/><path d="M702 685l77 46 40-100-117 54z" fill="#1b8787" stroke="#1b8787"/><path d="M819 631l44 56 21-87-65 31z" fill="#138a8a" stroke="#138a8a"/><path d="M424 294l-43 69 87 14-44-83z" fill="#5cc8c8" stroke="#5cc8c8"/><path d="M969 557l-5-125-82 45 87 80z" fill="#179696" stroke="#179696"/><path d="M910 361l87-79-82 23-5 56z" fill="#30aaaa" stroke="#30aaaa"/><path d="M548 648l15 63 89 2-104-65z" fill="#259695" stroke="#259695"/><path d="M450 689l113 22-15-63-98 41z" fill="#349c9b" stroke="#349c9b"/><path d="M450 689l98-41-51-47-47 88z" fill="#3aa2a2" stroke="#3aa2a2"/><path d="M424 294l-89 65 46 4 43-69z" fill="#64caca" stroke="#64caca"/><path d="M586 197l-111 2-10 84 121-86z" fill="#6ed1d1" stroke="#6ed1d1"/><path d="M808 140l-112-22 36 94 76-72z" fill="#6ec1c0" stroke="#6ec1c0"/><path d="M586 197l-42-58-69 60 111-2z" fill="#78d3d3" stroke="#78d3d3"/><path d="M821 212l-13-72-76 72h89z" fill="#63bdbc" stroke="#63bdbc"/><path d="M915 305l-30-103-78 91 108 12z" fill="#46b4b4" stroke="#46b4b4"/><path d="M945 191l-60 11 30 103 30-114z" fill="#4fb6b6" stroke="#4fb6b6"/><path d="M696 118l-64-1 14 104 50-103z" fill="#73caca" stroke="#73caca"/><path d="M632 117l-88 22 42 58 46-80z" fill="#79d1d1" stroke="#79d1d1"/><path d="M424 531l-6 98 79-28-73-70z" fill="#46aeae" stroke="#46aeae"/><path d="M340 598l78 31 6-98-84 67z" fill="#50b0b0" stroke="#50b0b0"/><path d="M313 553l111-22-26-74-85 96z" fill="#57b8b7" stroke="#57b8b7"/><path d="M712 806l67-75-77-46 10 121z" fill="#1c8282" stroke="#1c8282"/><path d="M712 806l-10-121-50 28 60 93z" fill="#1c8787" stroke="#1c8787"/><path d="M779 731l84-44-44-56-40 100z" fill="#168585" stroke="#168585"/><path d="M1033 459l-42-56-27 29 69 27z" fill="#1f9595" stroke="#1f9595"/><path d="M874 145l-66-5 13 72 53-67z" fill="#67bdbd" stroke="#67bdbd"/><path d="M964 432l27-29-81-42 54 71z" fill="#249c9c" stroke="#249c9c"/><path d="M969 557l-109-30 24 73 85-43z" fill="#109292" stroke="#109292"/><path d="M956 615l13-58-85 43 72 15z" fill="#098d8d" stroke="#098d8d"/><path d="M381 363l-40 86 57 8-17-94z" fill="#5fbcbc" stroke="#5fbcbc"/><path d="M475 199l-63 21 53 63 10-84z" fill="#75d5d5" stroke="#75d5d5"/><path d="M381 363l-46-4 6 90 40-86z" fill="#65c3c3" stroke="#65c3c3"/><path d="M469 151l-57 69 63-21-6-48z" fill="#81d9d8" stroke="#81d9d8"/><path d="M418 629l32 60 47-88-79 28z" fill="#42a6a6" stroke="#42a6a6"/><path d="M340 230l-5 129 89-65-84-64z" fill="#72d1d1" stroke="#72d1d1"/><path d="M863 687l93-72-72-15-21 87z" fill="#0c8989" stroke="#0c8989"/><path d="M531 66l-62 85 75-12-13-73z" fill="#8cdad9" stroke="#8cdad9"/><path d="M544 139l-75 12 6 48 69-60z" fill="#82d7d7" stroke="#82d7d7"/><path d="M563 711l56 72 33-70-89-2z" fill="#1f8e8e" stroke="#1f8e8e"/><path d="M450 689l112 77 1-55-113-22z" fill="#329696" stroke="#329696"/><path d="M885 202l-11-57-53 67 64-10z" fill="#60bbbb" stroke="#60bbbb"/><path d="M808 140l-70-84-42 62 112 22z" fill="#7dc5c5" stroke="#7dc5c5"/><path d="M945 191l-71-46 11 57 60-11z" fill="#60bbba" stroke="#60bbba"/><path d="M562 766l57 17-56-72-1 55z" fill="#258e8e" stroke="#258e8e"/><path d="M991 403l6-121-87 79 81 42z" fill="#26a4a4" stroke="#26a4a4"/><path d="M1034 529l-1-70-64 98 65-28z" fill="#0e9090" stroke="#0e9090"/><path d="M969 557l64-98-69-27 5 125z" fill="#169494" stroke="#169494"/><path d="M991 403l52-3-46-118-6 121z" fill="#239f9f" stroke="#239f9f"/><path d="M997 282l-52-91-30 114 82-23z" fill="#45b1b1" stroke="#45b1b1"/><path d="M313 553l27 45 84-67-111 22z" fill="#57b4b4" stroke="#57b4b4"/><path d="M418 629l-30 93 62-33-32-60z" fill="#47a2a2" stroke="#47a2a2"/><path d="M313 553l85-96-57-8-28 104z" fill="#5ebbba" stroke="#5ebbba"/><path d="M231 520l82 33 28-104-110 71z" fill="#65bcbc" stroke="#65bcbc"/><path d="M1033 459l10-59-52 3 42 56z" fill="#209494" stroke="#209494"/><path d="M779 731l95 30-11-74-84 44z" fill="#137f7f" stroke="#137f7f"/><path d="M863 687l115 28-22-100-93 72z" fill="#088383" stroke="#088383"/><path d="M619 783l93 23-60-93-33 70z" fill="#1d8686" stroke="#1d8686"/><path d="M1152 477l-18-111-91 34 109 77z" fill="#1e9090" stroke="#1e9090"/><path d="M1050 639l-16-110-65 28 81 82z" fill="#058b8b" stroke="#058b8b"/><path d="M696 118l-29-82-35 81 64 1z" fill="#85cece" stroke="#85cece"/><path d="M632 117L531 66l13 73 88-22z" fill="#89d6d6" stroke="#89d6d6"/><path d="M820,38l-82,18l70,84L820,38z" fill="#83c6c5" stroke="#83c6c5"/><path d="M820,38l-12,102l66,5L820,38z" fill="#78c2c1" stroke="#78c2c1"/><path d="M407 132l-67 98 72-10-5-88z" fill="#8adcdb" stroke="#8adcdb"/><path d="M412 220l-72 10 84 64-12-74z" fill="#7bd7d6" stroke="#7bd7d6"/><path d="M335 359l-112 30 118 60-6-90z" fill="#6dc3c3" stroke="#6dc3c3"/><path d="M712 806l89-12-22-63-67 75z" fill="#197d7d" stroke="#197d7d"/><path d="M956 615l94 24-81-82-13 58z" fill="#058989" stroke="#058989"/><path d="M801 794l73-33-95-30 22 63z" fill="#147b7b" stroke="#147b7b"/><path d="M667 36L531 66l101 51 35-81z" fill="#8dd6d5" stroke="#8dd6d5"/><path d="M469 151l-62-19 5 88 57-69z" fill="#8bdcdb" stroke="#8bdcdb"/><path d="M340 230l-47 93 42 36 5-129z" fill="#76d2d2" stroke="#76d2d2"/><path d="M1043 400l-17-132-29 14 46 118z" fill="#2da6a6" stroke="#2da6a6"/><path d="M997 282l44-73-96-18 52 91z" fill="#4eb2b2" stroke="#4eb2b2"/><path d="M738 56l-71-20 29 82 42-62z" fill="#89cdcc" stroke="#89cdcc"/><path d="M451 68l-44 64 62 19-18-83z" fill="#97dfdf" stroke="#97dfdf"/><path d="M450 689l7 103 105-26-112-77z" fill="#389595" stroke="#389595"/><path d="M576 880l58 5-15-102-43 97z" fill="#1e8b8b" stroke="#1e8b8b"/><path d="M313 699l75 23 30-93-105 70z" fill="#4fa3a3" stroke="#4fa3a3"/><path d="M313 699l105-70-78-31-27 101z" fill="#54aaaa" stroke="#54aaaa"/><path d="M388 722l69 70-7-103-62 33z" fill="#429b9b" stroke="#429b9b"/><path d="M619 783l15 102 78-79-93-23z" fill="#1d8686" stroke="#1d8686"/><path d="M874 761l104-46-115-28 11 74z" fill="#0a7f7f" stroke="#0a7f7f"/><path d="M943 813l35-98-104 46 69 52z" fill="#077878" stroke="#077878"/><path d="M738 56l-26-95-45 75 71 20z" fill="#99d0d0" stroke="#99d0d0"/><path d="M870 26l-50 12 54 107-4-119z" fill="#83c5c5" stroke="#83c5c5"/><path d="M982 148l-108-3 71 46 37-43z" fill="#64baba" stroke="#64baba"/><path d="M1041 209l-59-61-37 43 96 18z" fill="#5cb6b6" stroke="#5cb6b6"/><path d="M531 66l-80 2 18 83 62-85z" fill="#98dedd" stroke="#98dedd"/><path d="M465-47L451,68l80-2L465-47z" fill="#abe4e3" stroke="#abe4e3"/><path d="M801 794l106 76-33-109-73 33z" fill="#107a7a" stroke="#107a7a"/><path d="M712 806l81 37 8-49-89 12z" fill="#197d7d" stroke="#197d7d"/><path d="M723 887l70-44-81-37 11 81z" fill="#1b7e7e" stroke="#1b7e7e"/><path d="M1026 268l15-59-44 73 29-14z" fill="#44aeae" stroke="#44aeae"/><path d="M1123 276l-82-67-15 59 97 8z" fill="#43adad" stroke="#43adad"/><path d="M978 715l72-76-94-24 22 100z" fill="#048282" stroke="#048282"/><path d="M1152 477l-109-77-10 59 119 18z" fill="#1a9090" stroke="#1a9090"/><path d="M1043 400l91-34-108-98 17 132z" fill="#229f9f" stroke="#229f9f"/><path d="M388 722l-17 43 86 27-69-70z" fill="#469999" stroke="#469999"/><path d="M239 619l74 80 27-101-101 21z" fill="#5eadad" stroke="#5eadad"/><path d="M239 619l101-21-27-45-74 66z" fill="#60b3b3" stroke="#60b3b3"/><path d="M214 451l17 69 110-71-127 2z" fill="#6ebfbf" stroke="#6ebfbf"/><path d="M317 760l54 5 17-43-71 38z" fill="#4e9c9c" stroke="#4e9c9c"/><path d="M293 323l-70 66 112-30-42-36z" fill="#73cbcb" stroke="#73cbcb"/><path d="M224 321l-1 68 70-66-69-2z" fill="#7bd0cf" stroke="#7bd0cf"/><path d="M224 321l69 2-74-123 5 121z" fill="#89d9d8" stroke="#89d9d8"/><path d="M296 117l44 113 67-98-111-15z" fill="#98e0df" stroke="#98e0df"/><path d="M451 68l-42-2-2 66 44-64z" fill="#a1e2e2" stroke="#a1e2e2"/><path d="M404-44l5,110l42,2L404-44z" fill="#b3e7e7" stroke="#b3e7e7"/><path d="M969 50l-99-24 4 119 95-95z" fill="#7fc3c3" stroke="#7fc3c3"/><path d="M656-55l-91 43 102 48-11-91z" fill="#a4dad9" stroke="#a4dad9"/><path d="M969 50l-95 95 108 3-13-98z" fill="#72bebe" stroke="#72bebe"/><path d="M223 389l-9 62 127-2-118-60z" fill="#72c1c0" stroke="#72c1c0"/><path d="M576 880l43-97-57-17 14 114z" fill="#238c8c" stroke="#238c8c"/><path d="M576 880l-14-114-105 26 119 88z" fill="#309191" stroke="#309191"/><path d="M667,36L565-12l-34,78L667,36z" fill="#9ddbdb" stroke="#9ddbdb"/><path d="M812-12l-74 68 82-18-8-50z" fill="#92caca" stroke="#92caca"/><path d="M219 200l74 123 47-93-121-30z" fill="#8adcdb" stroke="#8adcdb"/><path d="M223 389l-49-25 40 87 9-62z" fill="#7dc7c7" stroke="#7dc7c7"/><path d="M450 883l126-3-119-88-7 91z" fill="#369493" stroke="#369493"/><path d="M634 885l89 2-11-81-78 79z" fill="#1c8383" stroke="#1c8383"/><path d="M870 26l-58-38 8 50 50-12z" fill="#93c9c8" stroke="#93c9c8"/><path d="M231 520l8 99 74-66-82-33z" fill="#68b8b7" stroke="#68b8b7"/><path d="M313 699l4 61 71-38-75-23z" fill="#53a09f" stroke="#53a09f"/><path d="M175 559l64 60-8-99-56 39z" fill="#6fbab9" stroke="#6fbab9"/><path d="M1041 209l-4-67-55 6 59 61z" fill="#60b5b5" stroke="#60b5b5"/><path d="M978 715l91 3-19-79-72 76z" fill="#027c7c" stroke="#027c7c"/><path d="M907 870l36-57-69-52 33 109z" fill="#097979" stroke="#097979"/><path d="M907 870l-106-76-8 49 114 27z" fill="#137b7b" stroke="#137b7b"/><path d="M1152 477l-119-18 1 70 118-52z" fill="#108e8e" stroke="#108e8e"/><path d="M1041 209l73-73-77 6 4 67z" fill="#5fb3b3" stroke="#5fb3b3"/><path d="M812-12L712-39l26 95 74-68z" fill="#9bcdcc" stroke="#9bcdcc"/><path d="M1134 366l-11-90-97-8 108 98z" fill="#30a3a3" stroke="#30a3a3"/><path d="M372 860l78 23 7-91-85 68z" fill="#439797" stroke="#439797"/><path d="M244 700l73 60-4-61-69 1z" fill="#5aa3a2" stroke="#5aa3a2"/><path d="M1050 639l70-40-86-70 16 110z" fill="#008686" stroke="#008686"/><path d="M1113 708l7-109-70 40 63 69z" fill="#007d7d" stroke="#007d7d"/><path d="M870 26l26-51-84 13 58 38z" fill="#98cbca" stroke="#98cbca"/><path d="M1037 142l-68-92 13 98 55-6z" fill="#71bbba" stroke="#71bbba"/><path d="M1157 561l-5-84-118 52 123 32z" fill="#098989" stroke="#098989"/><path d="M1160 197l-119 12 82 67 37-79z" fill="#4babaa" stroke="#4babaa"/><g fill="#a1d6d5" stroke="#a1d6d5"><path d="M657-119l-1 64 56 16-55-80z"/><path d="M712-39l-56-16 11 91 45-75z"/></g><path d="M409 66l-113 51 111 15 2-66z" fill="#a4e3e3" stroke="#a4e3e3"/><path d="M318 40l-22 77 113-51-91-26z" fill="#b0e7e7" stroke="#b0e7e7"/><path d="M1061 760l8-42-91-3 83 45z" fill="#027777" stroke="#027777"/><path d="M224 321l-50 43 49 25 1-68z" fill="#80cfcf" stroke="#80cfcf"/><path d="M214 451l-39 108 56-39-17-69z" fill="#74bfbf" stroke="#74bfbf"/><path d="M133 291l41 73 50-43-91-30z" fill="#89d6d6" stroke="#89d6d6"/><path d="M943 813l118-53-83-45-35 98z" class="He Hf"/><path d="M723 887l184-17-114-27-70 44z" fill="#167c7c" stroke="#167c7c"/><path d="M372 860l85-68-86-27 1 95z" fill="#479999" stroke="#479999"/><path d="M576 880l-126 3 184 2-58-5z" fill="#2b8f8f" stroke="#2b8f8f"/><path d="M634 885l-306 7 395-5-89-2z" fill="#298e8e" stroke="#298e8e"/><path d="M317 760l55 100-1-95-54-5z" fill="#4f9b9b" stroke="#4f9b9b"/><path d="M239 619l5 81 69-1-74-80z" fill="#61a9a9" stroke="#61a9a9"/><path d="M148 618l96 82-5-81-91-1z" fill="#6cb0af" stroke="#6cb0af"/><path d="M296 117l-77 83 121 30-44-113z" fill="#9be1e0" stroke="#9be1e0"/><path d="M1194 624l-37-63-37 38 74 25z" fill="#007f7f" stroke="#007f7f"/><path d="M1120 599l37-38-123-32 86 70z" fill="#038686" stroke="#038686"/><path d="M123 462l52 97 39-108-91 11z" fill="#7bc2c2" stroke="#7bc2c2"/><path d="M969 50l-73-75-26 51 99 24z" fill="#90c8c7" stroke="#90c8c7"/><path d="M812-12l-16-73-84 46 100 27z" fill="#9ccdcc" stroke="#9ccdcc"/><path d="M1069 718l44-10-63-69 19 79z" fill="#007979" stroke="#007979"/><path d="M982 857l79-97-118 53 39 44z" class="He Hf"/><path d="M565-12L465-47l66 113 34-78z" fill="#aee3e2" stroke="#aee3e2"/><path d="M558-135l-93 88 100 35-7-123z" fill="#afe3e2" stroke="#afe3e2"/><path d="M328 892l44-32-119-13 75 45z" fill="#549c9c" stroke="#549c9c"/><path d="M1061 760l52-52-44 10-8 42z" fill="#007474" stroke="#007474"/><path d="M296 117l-91 32 14 51 77-83z" fill="#a9e5e5" stroke="#a9e5e5"/><path d="M404-44l-86 84 91 26-5-110z" fill="#bbeaea" stroke="#bbeaea"/><path d="M907 870l75-13-39-44-36 57z" fill="#077777" stroke="#077777"/><path d="M1161 816l45-128-93 20 48 108z" class="Ha Hb"/><path d="M896-25L796-85l16 73 84-13z" fill="#9acbca" stroke="#9acbca"/><path d="M656-55l-98-80 7 123 91-43z" fill="#a7dedd" stroke="#a7dedd"/><path d="M896-25l-33-108-67 48 100 60z" class="Hg Hh"/><path d="M969 50l-22-79-51 4 73 75z" fill="#95c8c7" stroke="#95c8c7"/><path d="M1037 142l7-88-75-4 68 92z" fill="#79bdbc" stroke="#79bdbc"/><path d="M1114 136l-70-82-7 88 77-6z" fill="#6fb7b7" stroke="#6fb7b7"/><path d="M1160 197l-46-61-73 73 119-12z" fill="#59afaf" stroke="#59afaf"/><path d="M1160 197l-37 79 90 33-53-112z" fill="#3ea3a3" stroke="#3ea3a3"/><path d="M1075-7L947-29l22,79L1075-7z" fill="#91c4c3" stroke="#91c4c3"/><path d="M1152 477l56-24-74-87 18 111z" fill="#1b8a8a" stroke="#1b8a8a"/><path d="M1208 536v-83l-56 24 56 59z" fill="#0f8686" stroke="#0f8686"/><path d="M1208 536l-56-59 5 84 51-25z" fill="#088585" stroke="#088585"/><path d="M242 50l-37 99 91-32-54-67z" fill="#b6e9e8" stroke="#b6e9e8"/><path d="M219 200l-86 91 91 30-5-121z" fill="#94dddc" stroke="#94dddc"/><path d="M465-47l-61,3l47,112L465-47z" fill="#bbe9e9" stroke="#bbe9e9"/><path d="M134 119l19 75 52-45-71-30z" fill="#b5e9e8" stroke="#b5e9e8"/><path d="M421-111l-17 67 61-3-44-64z" fill="#bceae9" stroke="#bceae9"/><path d="M1213 309l-90-33 11 90 79-57z" fill="#2a9c9c" stroke="#2a9c9c"/><path d="M174 364l-51 98 91-11-40-87z" fill="#81c5c5" stroke="#81c5c5"/><path d="M175 559l-27 59 91 1-64-60z" fill="#72b8b7" stroke="#72b8b7"/><path d="M76 433l47 29 51-98-98 69z" fill="#88c7c7" stroke="#88c7c7"/><path d="M1194 624l14-88-51 25 37 63z" fill="#027f7f" stroke="#027f7f"/><path d="M739-133l-82 14 55 80 27-94z" fill="#a0d3d2" stroke="#a0d3d2"/><path d="M39,517l109,101l27-59L39,517z" fill="#7fbebe" stroke="#7fbebe"/><path d="M244 700l-39 67 112-7-73-60z" fill="#5fa1a1" stroke="#5fa1a1"/><path d="M153 194l-20 97 86-91-66-6z" fill="#a2e2e2" stroke="#a2e2e2"/><path d="M1222 351l-88 15 74 87 14-102z" fill="#1e8f8f" stroke="#1e8f8f"/><path d="M1222 351l-9-42-79 57 88-15z" fill="#209696" stroke="#209696"/><path d="M1298 387l-76-36-14 102 90-66z" fill="#1c8989" stroke="#1c8989"/><path d="M1113 708l81-84-74-25-7 109z" fill="#007a7a" stroke="#007a7a"/><path d="M1206 688l-12-64-81 84 93-20z" fill="#007474" stroke="#007474"/><path d="M242 50l54 67 22-77-76 10z" fill="#b9eaea" stroke="#b9eaea"/><path d="M205 149l-52 45 66 6-14-51z" fill="#aae5e4" stroke="#aae5e4"/><path d="M796-85l-57-48-27 94 84-46z" fill="#9ececd" stroke="#9ececd"/><path d="M863-133H739l57 48 67-48z" fill="#9bcccb" stroke="#9bcccb"/><path d="M222-5l20,55l76-10L222-5z" fill="#c9eeee" stroke="#c9eeee"/><path d="M135 693l70 74 39-67-109-7z" fill="#6aa7a7" stroke="#6aa7a7"/><path d="M253 847l119 13-55-100-64 87z" fill="#559c9c" stroke="#559c9c"/><path d="M372 860l-44 32 122-9-78-23z" fill="#4a9999" stroke="#4a9999"/><path d="M450 883l-122 9 306-7-184-2z" fill="#3b9595" stroke="#3b9595"/><path d="M657-119l-99-16 98 80 1-64z" fill="#a4dbda" stroke="#a4dbda"/><path d="M404-44l-87-9 1 93 86-84z" fill="#c7eded" stroke="#c7eded"/><path d="M739-133l-181-2 99 16 82-14z" fill="#a3d8d7" stroke="#a3d8d7"/><path d="M205 767l48 80 64-87-112 7z" fill="#5e9e9e" stroke="#5e9e9e"/><path d="M982 857l60 32 19-129-79 97z" fill="#027373" stroke="#027373"/><path d="M907 870l135 19-60-32-75 13z" fill="#057676" stroke="#057676"/><path d="M723 887l319 2-135-19-184 17z" fill="#0c7a7a" stroke="#0c7a7a"/><path d="M1223 897l-181-8-319-2 500 10z" class="He Hf"/><path d="M123 462l-84 55 136 42-52-97z" fill="#84c4c3" stroke="#84c4c3"/><path d="M148 618l-13 75 109 7-96-82z" fill="#70aeae" stroke="#70aeae"/><path d="M61,375l15,58l98-69L61,375z" fill="#8fcdcd" stroke="#8fcdcd"/><path d="M61 375l113-11-41-73-72 84z" fill="#90d6d5" stroke="#90d6d5"/><path d="M52 648l83 45 13-75-96 30z" fill="#7bb3b3" stroke="#7bb3b3"/><path d="M205 767l-60 20 108 60-48-80z" fill="#67a1a1" stroke="#67a1a1"/><path d="M475-133l-54 22 44 64 10-86z" fill="#b9e9e8" stroke="#b9e9e8"/><path d="M1311 516l-24-61-79 81 103-20z" fill="#0b8080" stroke="#0b8080"/><path d="M1208 536l79-81-79-2v83z" fill="#118383" stroke="#118383"/><path d="M1161 816l-48-108-52 52 100 56z" class="Ha Hb"/><path d="M558-135l-83 2-10 86 93-88z" fill="#b3e5e5" stroke="#b3e5e5"/><path d="M739-133l254-3-435 1 181 2z" fill="#9dcdcc" stroke="#9dcdcc"/><path d="M947-29l-84-104 33 108 51-4z" fill="#97cac9" stroke="#97cac9"/><path d="M993-136l-130 3 84 104 46-107z" fill="#96c8c7" stroke="#96c8c7"/><path d="M1044 54l31-61-106 57 75 4z" fill="#88c0bf" stroke="#88c0bf"/><path d="M1125 32l-50-39-31 61 81-22z" fill="#87bdbc" stroke="#87bdbc"/><path d="M1125 32l-81 22 70 82 11-104z" fill="#79b8b7" stroke="#79b8b7"/><path d="M1125 32l-11 104 118-12-107-92z" fill="#70b1b1" stroke="#70b1b1"/><path d="M330-124l-13 71 87 9-74-80z" class="Hi Hj"/><path d="M1232 124l-118 12 46 61 72-73z" fill="#60acab" stroke="#60acab"/><path d="M78 774l67 13-10-94-57 81z" fill="#74a6a5" stroke="#74a6a5"/><path d="M55 297l6 78 72-84-78 6z" fill="#9adbda" stroke="#9adbda"/><path d="M222-5l-52,84l72-29L222-5z" fill="#ccefef" stroke="#ccefef"/><path d="M242 50l-72 29 35 70 37-99z" fill="#bfeceb" stroke="#bfeceb"/><path d="M153 194l-72 17 52 80 20-97z" fill="#a9e5e4" stroke="#a9e5e4"/><path d="M1309 325l-96-16 9 42 87-26z" fill="#239494" stroke="#239494"/><path d="M1301 230l-63-32-25 111 88-79z" fill="#429f9f" stroke="#429f9f"/><path d="M1213 309l25-111-78-1 53 112z" fill="#46a3a3" stroke="#46a3a3"/><path d="M170 79l-36 40 71 30-35-70z" fill="#beebeb" stroke="#beebeb"/><path d="M1311 516l-103 20 96 86 7-106z" fill="#047b7b" stroke="#047b7b"/><path d="M69 56l16 60 49 3-65-63zM317-53L222-5l96 45-1-93z" fill="#cef0f0" stroke="#cef0f0"/><path d="M170-40l52 35-7-102-45 67z" fill="#daf4f3" stroke="#daf4f3"/><path d="M1120 872l41-56-100-56 59 112z" class="Ha Hb"/><path d="M134 119l-53 92 72-17-19-75z" fill="#b6e9e8" stroke="#b6e9e8"/><path d="M81 211l-26 86 78-6-52-80z" fill="#a6e2e2" stroke="#a6e2e2"/><path d="M1075-7l-39-81-89 59 128 22z" fill="#93c3c2" stroke="#93c3c2"/><path d="M1125 32l-15-47-35 8 50 39z" fill="#8dbdbc" stroke="#8dbdbc"/><path d="M1219-5l-109-10 15 47 94-37z" fill="#8bb9b8" stroke="#8bb9b8"/><path d="M1042 889l78-17-59-112-19 129z" fill="#007171" stroke="#007171"/><path d="M1287 455l11-68-90 66 79 2z" fill="#198383" stroke="#198383"/><path d="M39 517l84-55-47-29-37 84z" fill="#8cc8c7" stroke="#8cc8c7"/><path d="M135 693l10 94 60-20-70-74z" fill="#6ea4a4" stroke="#6ea4a4"/><path d="M253 847l-127 25 202 20-75-45z" fill="#619f9f" stroke="#619f9f"/><path d="M-34 472l73 45 37-84-110 39z" fill="#95cac9" stroke="#95cac9"/><path d="M-22 369l98 64-15-58-83-6z" fill="#99d0d0" stroke="#99d0d0"/><path d="M1110-15l-74-73 39 81 35-8z" fill="#91c0bf" stroke="#91c0bf"/><path d="M1238 198l-6-74-72 73 78 1z" fill="#58a7a7" stroke="#58a7a7"/><path d="M1269 125l-37-1 6 74 31-73z" fill="#5fa7a7" stroke="#5fa7a7"/><path d="M1400 439l-34-80-68 28 102 52z" fill="#1c8282" stroke="#1c8282"/><path d="M1304 622l-96-86-14 88 110-2z" fill="#007a7a" stroke="#007a7a"/><path d="M1304 622l-110 2 12 64 98-66z" fill="#007373" stroke="#007373"/><path d="M1298 387l11-62-87 26 76 36z" fill="#1e8e8e" stroke="#1e8e8e"/><path d="M1366 359l-57-34-11 62 68-28z" fill="#1e8a8a" stroke="#1e8a8a"/><path d="M421-111l-91-13 74 80 17-67z" fill="#c2eceb" stroke="#c2eceb"/><path d="M475-133l-145 9 91 13 54-22z" fill="#beebea" stroke="#beebea"/><path d="M39,517l13,131l96-30L39,517z" fill="#84bdbc" stroke="#84bdbc"/><path d="M1124-121l-131-15 43 48 88-33z" fill="#92c2c1" stroke="#92c2c1"/><path d="M1036-88l-43-48-46 107 89-59z" fill="#94c5c4" stroke="#94c5c4"/><path d="M863-133l130-3-254 3h124z" class="Hg Hh"/><path d="M170-40V79l52-84-52-35z" fill="#d8f3f3" stroke="#d8f3f3"/><path d="M69,56l65,63l36-40L69,56z" fill="#cdf0ef" stroke="#cdf0ef"/><path d="M134 119l-49-3-4 95 53-92z" fill="#c1ecec" stroke="#c1ecec"/><path d="M-38 190l48 134 45-27-93-107z" fill="#b3e5e5" stroke="#b3e5e5"/><path d="M1235 788l-29-100-45 128 74-28z" fill="#006868" stroke="#006868"/><path d="M1311 679l-7-57-98 66 105-9z" class="Ha Hb"/><path d="M1309 325l-8-95-88 79 96 16z" fill="#339898" stroke="#339898"/><path d="M-38 190l93 107 26-86-119-21z" fill="#b7e9e8" stroke="#b7e9e8"/><path d="M55 297l-45 27 51 51-6-78z" fill="#9fdbdb" stroke="#9fdbdb"/><path d="M11 722l40-18 1-56-41 74z" fill="#85b2b1" stroke="#85b2b1"/><path d="M1223 897l12-109-74 28 62 81z" fill="#006767" stroke="#006767"/><path d="M1301 230l-32-105-31 73 63 32z" fill="#54a2a2" stroke="#54a2a2"/><path d="M1232 124l9-73-116-19 107 92z" fill="#77b0b0" stroke="#77b0b0"/><path d="M1110-15l14-106-88 33 74 73z" fill="#90bfbe" stroke="#90bfbe"/><path d="M13,617l39,31L39,517L13,617z" fill="#8bbfbe" stroke="#8bbfbe"/><path d="M52 648l-1 56 84-11-83-45z" fill="#7fb1b1" stroke="#7fb1b1"/><path d="M-20 552l33 65 26-100-59 35z" fill="#92c3c2" stroke="#92c3c2"/><path d="M145 787l-19 85 127-25-108-60z" fill="#6ba2a2" stroke="#6ba2a2"/><path d="M51 704l27 70 57-81-84 11z" fill="#7babab" stroke="#7babab"/><path d="M11 722l67 52-27-70-40 18z" fill="#81acab" stroke="#81acab"/><path d="M215-107l7 102 95-48-102-54z" fill="#d3f2f1" stroke="#d3f2f1"/><path d="M1269 125l-28-74-9 73 37 1z" fill="#6caaaa" stroke="#6caaaa"/><path d="M1286 773l25-94-105 9 80 85z" fill="#006969" stroke="#006969"/><path d="M1304 622l74-22-67-84-7 106z" fill="#017575" stroke="#017575"/><path d="M10 324l-32 45 83 6-51-51z" fill="#a0d8d7" stroke="#a0d8d7"/><path d="M-83 270l61 99 32-45-93-54z" fill="#a8dfde" stroke="#a8dfde"/><path d="M13 617l-2 105 41-74-39-31z" fill="#88b6b6" stroke="#88b6b6"/><path d="M-34 472l14 80 59-35-73-45z" fill="#97c9c8" stroke="#97c9c8"/><path d="M61 856l65 16 19-85-84 69z" fill="#75a5a5" stroke="#75a5a5"/><path d="M1309 325l55-44-63-51 8 95z" fill="#359595" stroke="#359595"/><path d="M1301 230l75-116-107 11 32 105z" fill="#5aa0a0" stroke="#5aa0a0"/><path d="M1269 125l10-101-38 27 28 74z" fill="#75abab" stroke="#75abab"/><path d="M1400 439l-102-52-11 68 113-16z" fill="#197f7f" stroke="#197f7f"/><path d="M1400 439l-113 16 24 61 89-77z" fill="#127d7d" stroke="#127d7d"/><path d="M1279 24l-60-29 22 56 38-27z" fill="#82b1b0" stroke="#82b1b0"/><path d="M1241 51l-22-56-94 37 116 19z" fill="#83b4b4" stroke="#83b4b4"/><path d="M-22 369l-12 103 110-39-98-64z" fill="#9ccdcc" stroke="#9ccdcc"/><path d="M330-124l-115 17 102 54 13-71z" fill="#cef0ef" stroke="#cef0ef"/><path d="M1283 882l3-109-51 15 48 94z" fill="#006363" stroke="#006363"/><path d="M1235 788l51-15-80-85 29 100z" fill="#066" stroke="#066"/><path d="M69-29v85l101-96L69-29z" fill="#e8f8f8" stroke="#e8f8f8"/><path d="M170-40L69,56l101,23V-40z" fill="#d9f4f3" stroke="#d9f4f3"/><path d="M-38 145v45l119 21-119-66z" fill="#c7eeed" stroke="#c7eeed"/><path d="M1366 359l-2-78-55 44 57 34z" fill="#258e8e" stroke="#258e8e"/><path d="M1224-107l-100-14-14 106 114-92z" fill="#8ebab9" stroke="#8ebab9"/><path d="M-94 626l105 96 2-105-107 9z" fill="#8db8b8" stroke="#8db8b8"/><path d="M78 774l-17 82 84-69-67-13z" fill="#77a6a5" stroke="#77a6a5"/><path d="M328 892l895 5-500-10-395 5z" fill="#1a7d7d" stroke="#1a7d7d"/><path d="M1042 889l181 8-103-25-78 17z" fill="#006d6d" stroke="#006d6d"/><path d="M1120 872l103 25-62-81-41 56z" fill="#006a6a" stroke="#006a6a"/><path d="M1381 713l-70-34-25 94 95-60z" fill="#006464" stroke="#006464"/><path d="M1381 713l-3-113-67 79 70 34z" fill="#006969" stroke="#006969"/><path d="M1311 679l67-79-74 22 7 57z" class="Ha Hb"/><path d="M1471 311l-80-88-27 58 107 30z" fill="#379493" stroke="#379493"/><path d="M1394 538l6-99-89 77 83 22z" fill="#0c7a7a" stroke="#0c7a7a"/><path d="M1378 600l16-62-83-22 67 84z" fill="#047676" stroke="#047676"/><path d="M1219-5l5-102-114 92 109 10z" fill="#8db7b7" stroke="#8db7b7"/><path d="M1354 72l-75-48-10 101 85-53z" fill="#72a8a8" stroke="#72a8a8"/><path d="M3,759l58,97l17-82L3,759z" fill="#7fa8a8" stroke="#7fa8a8"/><path d="M11 722l-8 37 75 15-67-52z" fill="#82aaa9" stroke="#82aaa9"/><path d="M-98 730L3 759l8-37-109 8z" fill="#88adad" stroke="#88adad"/><path d="M-94 626l107-9-33-65-74 74z" fill="#91c0bf" stroke="#91c0bf"/><path d="M-38 145l119 66 4-95-123 29z" fill="#c7eeed" stroke="#c7eeed"/><path d="M-22 369l-63 67 51 36 12-103z" fill="#9dcdcc" stroke="#9dcdcc"/><path d="M-34 472l-84 52 98 28-14-80z" fill="#96c9c8" stroke="#96c9c8"/><path d="M-83 270v127l61-28-61-99z" fill="#a4dbda" stroke="#a4dbda"/><path d="M1364 281l27-58-90 7 63 51z" fill="#409898" stroke="#409898"/><path d="M1471 311l-107-30 2 78 105-48z" fill="#268d8d" stroke="#268d8d"/><path d="M-83 397l-2 39 63-67-61 28z" fill="#9fd1d0" stroke="#9fd1d0"/><path d="M-29,63l-9,82l123-29L-29,63z" fill="#d9f3f3" stroke="#d9f3f3"/><path d="M132-120L69-29l101-11-38-80z" fill="#e5f8f7" stroke="#e5f8f7"/><path d="M-38 190l-45 80 93 54-48-134z" fill="#b6e7e7" stroke="#b6e7e7"/><path d="M-29 63l114 53-16-60-98 7z" fill="#dbf4f4" stroke="#dbf4f4"/><path d="M1223 897l60-15-48-94-12 109z" fill="#006464" stroke="#006464"/><path d="M1358 797l23-84-95 60 72 24z" fill="#005e5e" stroke="#005e5e"/><path d="M1489 534l-20-79-75 83 95-4z" fill="#087979" stroke="#087979"/><path d="M-124 232l41 38 45-80-86 42z" fill="#bdeaea" stroke="#bdeaea"/><path d="M-83 397l-35 127 33-88 2-39z" fill="#9bcccb" stroke="#9bcccb"/><path d="M10-125l122 5 198-4-320-1z" fill="#e0f6f5" stroke="#e0f6f5"/><path d="M330-124l-198 4 83 13 115-17z" fill="#d7f3f2" stroke="#d7f3f2"/><path d="M215-107l-83-13 38 80 45-67z" fill="#def5f5" stroke="#def5f5"/><path d="M1325-33L1219-5l60 29 46-57z" fill="#89b1b0" stroke="#89b1b0"/><path d="M1308-87l-84-20-5 102 89-82z" fill="#8ab2b2" stroke="#8ab2b2"/><path d="M1376 114l-22-42-85 53 107-11z" fill="#69a4a3" stroke="#69a4a3"/><path d="M1391 223l-15-109-75 116 90-7z" fill="#509b9b" stroke="#509b9b"/><path d="M1283 882l75-85-72-24-3 109z" fill="#006060" stroke="#006060"/><path d="M3,759L2,898l59-42L3,759z" fill="#83a9a8" stroke="#83a9a8"/><path d="M-118 524l24 102 74-74-98-28z" fill="#93c3c2" stroke="#93c3c2"/><path d="M-118 524l84-52-51-36-33 88z" class="Hg Hh"/><path d="M-2-24l71,80v-85L-2-24z" fill="#effbfa" stroke="#effbfa"/><path d="M-2-24l-27,87l98-7L-2-24z" fill="#ecfaf9" stroke="#ecfaf9"/><path d="M-104 149l-20 83 86-42-66-41z" class="Hi Hj"/><path d="M-124 232l6 292 35-127-41-165z" fill="#a1d4d3" stroke="#a1d4d3"/><path d="M1486 402l-15-91-105 48 120 43z" fill="#1d8787" stroke="#1d8787"/><path d="M1391 223l81-96-96-13 15 109z" fill="#5a9e9d" stroke="#5a9e9d"/><path d="M1394 538l75-83-69-16-6 99z" fill="#107a7a" stroke="#107a7a"/><path d="M1489 534l-95 4-16 62 111-66z" fill="#037575" stroke="#037575"/><path d="M1489 534l-111 66 90 47 21-113z" fill="#007171" stroke="#007171"/><path d="M1358-36l-33 3 29 105 4-108z" fill="#85abab" stroke="#85abab"/><path d="M1354 72l-29-105-46 57 75 48z" fill="#81acab" stroke="#81acab"/><path d="M132-120l-53 2-10 89 63-91z" fill="#eaf9f8" stroke="#eaf9f8"/><path d="M10-125l69 7 53-2-122-5z" fill="#edfaf9" stroke="#edfaf9"/><path d="M10-125L-2-24l71-5-59-96z" fill="#f4fcfc" stroke="#f4fcfc"/><path d="M1486 402l-120-43 34 80 86-37z" fill="#1b8080" stroke="#1b8080"/><path d="M1458 63l-100-99-4 108 104-9z" fill="#7ba7a7" stroke="#7ba7a7"/><path d="M61 856L2 898l124-26-65-16z" fill="#7ca7a7" stroke="#7ca7a7"/><path d="M126 872L2 898l326-6-202-20z" fill="#6ea3a3" stroke="#6ea3a3"/><path d="M328 892L2 898l1221-1-895-5z" fill="#329292" stroke="#329292"/><path d="M-108 851L2 898l1-139-111 92z" class="Hc Hd"/><path d="M-83,270l-41-38l41,165V270z" fill="#ade2e1" stroke="#ade2e1"/><path d="M-104 149l66 41v-45l-66 4z" fill="#cdf0ef" stroke="#cdf0ef"/><path d="M-104 149l66-4-41-87-25 91z" fill="#d8f3f3" stroke="#d8f3f3"/><path d="M1469 455l17-53-86 37 69 16z" fill="#187c7c" stroke="#187c7c"/><path d="M1472 127l-14 90 13 94 1-184z" fill="#489999" stroke="#489999"/><path d="M1471 311l-13-94-67 6 80 88z" fill="#3e9696" stroke="#3e9696"/><path d="M-79 58l41 87 9-82-50-5z" fill="#dff5f5" stroke="#dff5f5"/><path d="M-94 626l-4 104 109-8-105-96z" fill="#8ab3b2" stroke="#8ab3b2"/><path d="M-115 759l17-29 4-104-21 133z" fill="#8ab1b1" stroke="#8ab1b1"/><path d="M1358-36l-50-51 17 54 33-3z" fill="#88adac" stroke="#88adac"/><path d="M1325-33l-17-54-89 82 106-28z" fill="#89b0b0" stroke="#89b0b0"/><path d="M1469 455l20 79-3-132-17 53z" fill="#137b7b" stroke="#137b7b"/><path d="M1468 647l-90-47 3 113 87-66z" fill="#006a6a" stroke="#006a6a"/><path d="M1464 700l4-53-87 66 83-13z" fill="#066" stroke="#066"/><path d="M1458 63l-104 9 22 42 82-51z" fill="#6da3a2" stroke="#6da3a2"/><path d="M-107-5l28,63l77-82L-107-5z" fill="#f4fcfb" stroke="#f4fcfb"/><path d="M-2-24l-77,82l50,5L-2-24z" fill="#eefafa" stroke="#eefafa"/><path d="M1458 773l6-73-83 13 77 60z" fill="#006161" stroke="#006161"/><path d="M1468 647l-4 53 25-166-21 113z" fill="#006d6d" stroke="#006d6d"/><path d="M1458 773l-77-60-23 84 100-24z" class="Hk Hl"/><path d="M-98,730l-17,29H3L-98,730z" fill="#87acab" stroke="#87acab"/><path d="M-118 524l3 235 21-133-24-102z" fill="#8ebbba" stroke="#8ebbba"/><path d="M-124 232l9 527-3-235-6-292z" fill="#97cac9" stroke="#97cac9"/><path d="M1486 402l-14-275-1 184 15 91z" fill="#349393" stroke="#349393"/><path d="M1458 217l14-90-81 96 67-6z" fill="#509b9b" stroke="#509b9b"/><path d="M1283 882l125-13-50-72-75 85z" fill="#005e5e" stroke="#005e5e"/><path d="M1223 897l185-28-125 13-60 15z" fill="#006161" stroke="#006161"/><path d="M1408 869l50-96-100 24 50 72z" class="Hk Hl"/><path d="M1464 700l2 143 23-309-25 166z" fill="#006565" stroke="#006565"/><path d="M79-118l-69-7 59 96 10-89z" fill="#f0fbfa" stroke="#f0fbfa"/><path d="M475-133l-465 8 320 1 145-9z" fill="#d1f1f0" stroke="#d1f1f0"/><path d="M558-135L10-125l465-8 83-2z" class="Hi Hj"/><path d="M1472 127l-14-64-82 51 96 13z" fill="#69a1a1" stroke="#69a1a1"/><path d="M1358-36l6-67-56 16 50 51z" fill="#87acab" stroke="#87acab"/><path d="M1468-46l-104-57-6 67 110-10z" class="Hc Hd"/><path d="M1308-87l56-16-140-4 84 20z" fill="#89afae" stroke="#89afae"/><path d="M1224-107l140 4-240-18 100 14z" fill="#8bb4b3" stroke="#8bb4b3"/><path d="M1124-121l240 18-371-33 131 15z" fill="#8ebab9" stroke="#8ebab9"/><path d="M-115,759l7,92L3,759H-115z" class="Hc Hd"/><path d="M-109-94l2 89L-2-24-109-94z" fill="#f8fdfd" stroke="#f8fdfd"/><path d="M-79 58l-28-63 3 154 25-91z" fill="#e5f7f7" stroke="#e5f7f7"/><path d="M-104 149l-3-154-17 237 20-83z" fill="#d6f2f2" stroke="#d6f2f2"/><g class="Hk Hl"><path d="M1408 869l58-26-8-70-50 96z"/><path d="M1458 773l8 70-2-143-6 73z"/></g><path d="M1458 63l10-109-110 10 100 99z" class="Hc Hd"/><path d="M1472 127l-4-173-10 109 14 64z" fill="#77a6a5" stroke="#77a6a5"/><path d="M1479-86l-11 40 4 173 7-213z" fill="#85aaa9" stroke="#85aaa9"/><path d="M10-125l-119,31L-2-24L10-125z" fill="#f8fdfd" stroke="#f8fdfd"/><path d="M-107-5l-2-89-15 326 17-237z" fill="#ebf9f9" stroke="#ebf9f9"/><path d="M1468-46l11-40-115-17 104 57z" class="Hc Hd"/><path d="M1486 402l-7-488-7 213 14 275z" fill="#5b9e9e" stroke="#5b9e9e"/><path d="M1489 534l-10-620 7 488 3 132z" fill="#339292" stroke="#339292"/></g></svg>