<svg width="20" height="20" viewBox="0 0 20 20" fill="none" xmlns="http://www.w3.org/2000/svg">
<path d="M8.39167 11.8916C8.80833 11.6916 9.3 11.875 9.5 12.2916L11.4167 16.45L12.9167 15.7416L10.9917 11.5916C10.7917 11.175 10.975 10.675 11.3917 10.4833L11.625 10.4166L13.5417 10.0416L6.66667 4.26663V13.25L8.18333 12.025L8.39167 11.8916ZM11.3667 18.3083C10.95 18.5083 10.45 18.3333 10.2583 17.9166L8.44167 13.9666L6.35 15.65C6.20833 15.7666 6.03333 15.8333 5.83333 15.8333C5.61232 15.8333 5.40036 15.7455 5.24408 15.5892C5.0878 15.4329 5 15.221 5 15V2.49996C5 2.27895 5.0878 2.06698 5.24408 1.9107C5.40036 1.75442 5.61232 1.66663 5.83333 1.66663C6.03333 1.66663 6.225 1.74163 6.36667 1.85829L6.375 1.84996L15.95 9.88329C16.3083 10.1833 16.35 10.7083 16.0583 11.0583C15.9333 11.2083 15.7583 11.3083 15.5833 11.3416L12.95 11.8583L14.7833 15.8C15 16.2166 14.8 16.7083 14.3833 16.9L11.3667 18.3083Z" fill="#006A6A"/>
</svg>
