<svg width="24" height="24" viewBox="0 0 24 24" fill="none" xmlns="http://www.w3.org/2000/svg">
<path fill-rule="evenodd" clip-rule="evenodd" d="M2.875 14.125C3.45833 14.7083 4.16667 15 5 15C5.83333 15 6.54167 14.7083 7.125 14.125C7.52464 13.7254 7.78739 13.267 7.91323 12.7501H9.08677C9.21261 13.267 9.47536 13.7254 9.875 14.125C10.4583 14.7083 11.1667 15 12 15C12.8333 15 13.5417 14.7083 14.125 14.125C14.5246 13.7254 14.7874 13.267 14.9132 12.7501H16.0868C16.2126 13.267 16.4754 13.7254 16.875 14.125C17.4583 14.7083 18.1667 15 19 15C19.8333 15 20.5417 14.7083 21.125 14.125C21.7083 13.5417 22 12.8333 22 12C22 11.1667 21.7083 10.4583 21.125 9.875C20.5417 9.29167 19.8333 9 19 9C18.1667 9 17.4583 9.29167 16.875 9.875C16.4753 10.2747 16.2126 10.733 16.0867 11.2501H14.9133C14.7874 10.733 14.5247 10.2747 14.125 9.875C13.5417 9.29167 12.8333 9 12 9C11.1667 9 10.4583 9.29167 9.875 9.875C9.47533 10.2747 9.21257 10.733 9.08674 11.2501H7.91326C7.78743 10.733 7.52467 10.2747 7.125 9.875C6.54167 9.29167 5.83333 9 5 9C4.16667 9 3.45833 9.29167 2.875 9.875C2.29167 10.4583 2 11.1667 2 12C2 12.8333 2.29167 13.5417 2.875 14.125Z" fill="#3F4948"/>
</svg>
