<svg width="32" height="32" viewBox="0 0 32 32" fill="none" xmlns="http://www.w3.org/2000/svg">
<g clip-path="url(#clip0_580_2834)">
<path d="M25.1667 10.5833V22.6667C25.1667 24.5 23.6667 26 21.8333 26H15.75C14.85 26 14 25.6417 13.375 25.0083L6.83334 18.3583C6.83334 18.3583 7.88334 17.3333 7.91668 17.3167C8.10001 17.1583 8.32501 17.075 8.57501 17.075C8.75834 17.075 8.92501 17.125 9.07501 17.2083C9.10834 17.2167 12.6667 19.2583 12.6667 19.2583V9.33333C12.6667 8.64167 13.225 8.08333 13.9167 8.08333C14.6083 8.08333 15.1667 8.64167 15.1667 9.33333V15.1667H16V7.25C16 6.55833 16.5583 6 17.25 6C17.9417 6 18.5 6.55833 18.5 7.25V15.1667H19.3333V8.08333C19.3333 7.39167 19.8917 6.83333 20.5833 6.83333C21.275 6.83333 21.8333 7.39167 21.8333 8.08333V15.1667H22.6667V10.5833C22.6667 9.89167 23.225 9.33333 23.9167 9.33333C24.6083 9.33333 25.1667 9.89167 25.1667 10.5833Z" fill="#006A6A"/>
</g>
<defs>
<clipPath id="clip0_580_2834">
<rect width="20" height="20" fill="white" transform="translate(6 6)"/>
</clipPath>
</defs>
</svg>
