<?xml version="1.0" encoding="utf-8"?>
<!-- Generator: Adobe Illustrator 23.0.3, SVG Export Plug-In . SVG Version: 6.00 Build 0)  -->
<svg version="1.1" id="圖層_1" xmlns="http://www.w3.org/2000/svg" xmlns:xlink="http://www.w3.org/1999/xlink" x="0px" y="0px"
	 viewBox="0 0 169 25" style="enable-background:new 0 0 169 25;" xml:space="preserve">
<style type="text/css">
	.st0{fill-rule:evenodd;clip-rule:evenodd;fill:#FFFFFF;}
</style>
<title>logo</title>
<desc>Created with Sketch.</desc>
<g id="symbol">
	<g transform="translate(-35.000000, -46.000000)">
		<g id="logo" transform="translate(35.000000, 46.000000)">
			<path id="Fill-1" class="st0" d="M165.2,3L165.2,3V1.6h0.9c0.6,0,0.9,0.2,0.9,0.7c0,0.4-0.3,0.6-1,0.6H165.2z M167.3,4.7l-1-1.5
				c0.5-0.1,0.8-0.4,0.8-0.9c0-0.6-0.4-1-1.2-1h-1.2v3.5h0.3V3.3h0.7h0.2l1,1.5v0.1h0.4L167.3,4.7z"/>
			<path id="Fill-3" class="st0" d="M111.4,12.4c-0.2-0.1-0.2-0.3,0-0.4l12.5-10.4c0.2-0.1,0.1-0.2-0.1-0.2h-9.1
				c-0.2,0-0.5,0.1-0.6,0.2l-7.5,6.3c-0.2,0.1-0.4,0.1-0.5,0l-7.4-6.3c-0.2-0.1-0.4-0.2-0.6-0.2h-9.1c-0.2,0-0.2,0.1-0.1,0.2
				l12.5,10.4c0.2,0.1,0.2,0.3,0,0.4L88.2,23.5c-0.2,0.1-0.3,0.2-0.3,0.3h0.4h8.6c0.2,0,0.5-0.1,0.6-0.2l8.6-7.2
				c0.2-0.1,0.4-0.1,0.5,0l8.6,7.2c0.2,0.1,0.4,0.2,0.6,0.2h8.6h0.4c0,0-0.1-0.1-0.3-0.3L111.4,12.4z"/>
			<path id="Fill-5" class="st0" d="M167.1,23.7c0.2,0,0.3-0.1,0.1-0.3L150.1,1.6c-0.1-0.2-0.4-0.3-0.6-0.3h-7
				c-0.2,0-0.4,0.1-0.6,0.3l-17,21.8c-0.1,0.2-0.1,0.3,0.1,0.3h8c0.2,0,0.4-0.1,0.5-0.3l12.2-16.3c0.1-0.2,0.3-0.2,0.4,0l12.2,16.3
				c0.1,0.2,0.4,0.3,0.5,0.3H167.1z"/>
			<path id="Fill-7" class="st0" d="M82.4,12.3c0,4.9-6.1,8.2-13.8,8.2c-7.6,0-13.7-3.4-13.7-8.2s6.1-8.2,13.7-8.2
				C76.3,4.1,82.4,7.5,82.4,12.3 M89.5,12.3C89.5,5.5,80.2,0,68.7,0S47.9,5.5,47.9,12.3s9.3,12.4,20.8,12.4S89.5,19.1,89.5,12.3"/>
			<path id="Fill-9" class="st0" d="M165.9,5.8c-1.4,0-2.7-1.2-2.7-2.7c0-1.5,1.2-2.7,2.7-2.7c1.4,0,2.7,1.2,2.7,2.7
				C168.6,4.5,167.4,5.8,165.9,5.8 M165.9,0.1c-1.7,0-2.9,1.4-2.9,3c0,1.7,1.3,3,2.9,3c1.7,0,3-1.4,3-3S167.6,0.1,165.9,0.1"/>
			<path id="Fill-11" class="st0" d="M34.1,1.4c-0.2,0-0.4,0.1-0.5,0.3L22,18.3c-0.1,0.2-0.3,0.2-0.4,0L10,1.7
				C9.9,1.5,9.6,1.4,9.5,1.4H0.3C0.2,1.4,0,1.5,0,1.7v21.7c0,0.2,0.2,0.4,0.4,0.4h7.5c0.2,0,0.4-0.2,0.4-0.4V8.9
				c0-0.2,0.1-0.2,0.2-0.1l10.4,14.6c0.1,0.2,0.4,0.3,0.5,0.3h4.9c0.2,0,0.4-0.1,0.5-0.3L35.2,8.8c0.1-0.2,0.2-0.1,0.2,0.1v14.5
				c0,0.2,0.2,0.4,0.4,0.4h7.5c0.2,0,0.4-0.2,0.4-0.4V1.7c0-0.2-0.2-0.4-0.4-0.4H34.1z"/>
		</g>
	</g>
</g>
</svg>
