<?xml version="1.0" encoding="UTF-8"?>
<svg width="169px" height="25px" viewBox="0 0 169 25" version="1.1" xmlns="http://www.w3.org/2000/svg" xmlns:xlink="http://www.w3.org/1999/xlink">
    <!-- Generator: Sketch 46 (44423) - http://www.bohemiancoding.com/sketch -->
    <title>logo</title>
    <desc>Created with Sketch.</desc>
    <defs></defs>
    <g id="symbol" stroke="none" stroke-width="1" fill="none" fill-rule="evenodd">
        <g id="header-/-default" transform="translate(-35.000000, -46.000000)" fill="#008880">
            <g id="logo" transform="translate(35.000000, 46.000000)">
                <path d="M165.161514,2.97268594 L165.161514,2.97268594 L165.161514,1.62146506 L166.014511,1.62146506 C166.600946,1.62146506 166.867508,1.8376604 166.867508,2.32409992 C166.867508,2.7564906 166.547634,2.97268594 165.854574,2.97268594 L165.161514,2.97268594 Z M167.347319,4.70224868 L166.387697,3.24293012 C166.92082,3.13483245 167.187382,2.81053944 167.187382,2.32409992 C167.187382,1.6755139 166.760883,1.35122088 166.014511,1.35122088 L164.84164,1.35122088 L164.84164,4.86439518 L165.161514,4.86439518 L165.161514,3.29697896 L165.854574,3.29697896 L166.067823,3.29697896 L167.027445,4.81034635 L167.027445,4.86439518 L167.400631,4.86439518 L167.347319,4.70224868 Z" id="Fill-1"></path>
                <path d="M111.422713,12.3771833 C111.262776,12.2690856 111.262776,12.0528903 111.422713,11.9447926 L123.897792,1.56741623 C124.057729,1.45931855 124.004416,1.35122088 123.844479,1.35122088 L114.728076,1.35122088 C114.514826,1.35122088 114.248265,1.45931855 114.088328,1.56741623 L106.624606,7.89112996 C106.464669,7.99922763 106.25142,7.99922763 106.091483,7.89112996 L98.6810726,1.56741623 C98.5211356,1.45931855 98.2545741,1.35122088 98.0413249,1.35122088 L88.9249211,1.35122088 C88.7116719,1.35122088 88.7116719,1.45931855 88.8716088,1.56741623 L101.346688,11.9447926 C101.506625,12.0528903 101.506625,12.2690856 101.346688,12.3771833 L88.2318612,23.4571945 C88.0719243,23.5652922 87.9652997,23.6733899 87.9652997,23.7274387 L88.3384858,23.7274387 L96.9217666,23.7274387 C97.1350158,23.7274387 97.4015773,23.6193411 97.5615142,23.5112434 L106.144795,16.3227483 C106.304732,16.2146506 106.517981,16.2146506 106.677918,16.3227483 L115.314511,23.5112434 C115.474448,23.6193411 115.741009,23.7274387 115.954259,23.7274387 L124.537539,23.7274387 L124.910726,23.7274387 C124.910726,23.7274387 124.804101,23.6193411 124.644164,23.4571945 L111.422713,12.3771833 Z" id="Fill-3"></path>
                <path d="M167.080757,23.7274387 C167.294006,23.7274387 167.347319,23.6193411 167.187382,23.4571945 L150.127445,1.62146506 C150.02082,1.45931855 149.754259,1.35122088 149.541009,1.35122088 L142.503785,1.35122088 C142.290536,1.35122088 142.077287,1.45931855 141.91735,1.62146506 L124.910726,23.4571945 C124.804101,23.6193411 124.857413,23.7274387 125.01735,23.7274387 L133.014196,23.7274387 C133.227445,23.7274387 133.440694,23.6193411 133.547319,23.4571945 L145.755836,7.1884951 C145.862461,7.0263486 146.07571,7.0263486 146.182334,7.1884951 L158.337539,23.4571945 C158.444164,23.6193411 158.710726,23.7274387 158.870662,23.7274387 L167.080757,23.7274387 Z" id="Fill-5"></path>
                <path d="M82.4208202,12.3231345 C82.4208202,17.2415785 76.2899054,20.5385574 68.6662461,20.5385574 C61.0958991,20.5385574 54.9649842,17.1875296 54.9649842,12.3231345 C54.9649842,7.45873928 61.0958991,4.10771149 68.6662461,4.10771149 C76.2899054,4.10771149 82.4208202,7.45873928 82.4208202,12.3231345 M89.5113565,12.3231345 C89.5113565,5.51298121 80.1817035,0 68.7195584,0 C57.2574132,0 47.9277603,5.51298121 47.9277603,12.3231345 C47.9277603,19.1332877 57.2574132,24.7003178 68.7195584,24.7003178 C80.1817035,24.7003178 89.5113565,19.1332877 89.5113565,12.3231345" id="Fill-7"></path>
                <path d="M165.907886,5.78322538 C164.468454,5.78322538 163.242271,4.59415101 163.242271,3.08078362 C163.242271,1.62146506 164.415142,0.378341848 165.907886,0.378341848 C167.347319,0.378341848 168.573502,1.56741623 168.573502,3.08078362 C168.573502,4.54010217 167.400631,5.78322538 165.907886,5.78322538 M165.907886,0.108097671 C164.255205,0.108097671 162.97571,1.45931855 162.97571,3.08078362 C162.97571,4.75629751 164.308517,6.05346956 165.907886,6.05346956 C167.560568,6.05346956 168.893375,4.70224868 168.893375,3.08078362 C168.893375,1.45931855 167.560568,0.108097671 165.907886,0.108097671" id="Fill-9"></path>
                <path d="M34.0665615,1.35122088 C33.8533123,1.35122088 33.6400631,1.45931855 33.5334385,1.62146506 L22.0179811,18.2685064 C21.9113565,18.4306529 21.7514196,18.4306529 21.5914826,18.2685064 L10.0227129,1.6755139 C9.91608833,1.51336739 9.64952681,1.40526972 9.48958991,1.40526972 L0.319873817,1.40526972 C0.159936909,1.35122088 0,1.51336739 0,1.72956273 L0,23.4031457 C0,23.6193411 0.159936909,23.7814876 0.37318612,23.7814876 L7.89022082,23.7814876 C8.10347003,23.7814876 8.26340694,23.6193411 8.26340694,23.4031457 L8.26340694,8.91805783 C8.26340694,8.70186249 8.37003155,8.70186249 8.47665615,8.864009 L18.8725552,23.4571945 C18.9791798,23.6193411 19.2457413,23.7274387 19.4056782,23.7274387 L24.2570978,23.7274387 C24.470347,23.7274387 24.6835962,23.6193411 24.7902208,23.4571945 L35.1861199,8.80996016 C35.2927445,8.64781366 35.3993691,8.70186249 35.3993691,8.864009 L35.3993691,23.3490969 C35.3993691,23.5652922 35.559306,23.7274387 35.7725552,23.7274387 L43.2362776,23.7274387 C43.4495268,23.7274387 43.6094637,23.5652922 43.6094637,23.3490969 L43.6094637,1.72956273 C43.6094637,1.51336739 43.4495268,1.35122088 43.2362776,1.35122088 L34.0665615,1.35122088 Z" id="Fill-11"></path>
            </g>
        </g>
    </g>
</svg>