<svg width="24" height="24" viewBox="0 0 24 24" fill="none" xmlns="http://www.w3.org/2000/svg">
<path d="M5.13145 19.3643V17.2873H7.8868L5.57447 9.72034C5.17532 9.51274 4.8517 9.21162 4.6036 8.81697C4.3555 8.42232 4.23145 7.98619 4.23145 7.50859C4.23145 6.82204 4.47235 6.23787 4.95415 5.75607C5.4358 5.27442 6.0199 5.03359 6.70645 5.03359C7.2742 5.03359 7.77092 5.20234 8.19662 5.53984C8.62232 5.87734 8.9137 6.30859 9.07074 6.83359H12.1584V5.70859C12.1584 5.51704 12.223 5.35662 12.3521 5.22732C12.4814 5.09817 12.6419 5.03359 12.8334 5.03359C12.951 5.03359 13.0606 5.06359 13.1621 5.12359C13.2637 5.18359 13.3421 5.26782 13.3975 5.37627V5.49732L14.9795 4.02289C15.1088 3.89359 15.2585 3.81312 15.4286 3.78147C15.5988 3.74967 15.7652 3.77592 15.9278 3.86022L19.3861 5.46289C19.5314 5.53549 19.6349 5.64072 19.6966 5.77857C19.7584 5.91657 19.7576 6.05359 19.6941 6.18964C19.6214 6.33514 19.5161 6.42837 19.3782 6.46932C19.2404 6.51027 19.1033 6.49902 18.9671 6.43557L15.6407 4.89859L13.5084 6.87859V8.13859L15.6407 10.0736L18.9671 8.53662C19.1033 8.47317 19.2427 8.46424 19.3852 8.50984C19.5277 8.55544 19.6307 8.64627 19.6941 8.78232C19.7667 8.92767 19.7699 9.06702 19.7036 9.20037C19.6373 9.33357 19.5314 9.43654 19.3861 9.50929L15.9278 11.1396C15.7652 11.2239 15.5988 11.2488 15.4286 11.2141C15.2585 11.1795 15.1088 11.1004 14.9795 10.977L13.3975 9.51964V9.64092C13.3421 9.73092 13.2637 9.81049 13.1621 9.87964C13.0606 9.94894 12.951 9.98359 12.8334 9.98359C12.6419 9.98359 12.4814 9.91894 12.3521 9.78964C12.223 9.66049 12.1584 9.50014 12.1584 9.30859V8.18359H9.07074C9.02574 8.34394 8.96402 8.49972 8.88557 8.65092C8.80697 8.80197 8.71405 8.94042 8.6068 9.06627L13.0375 17.2873H16.3814V19.3643H5.13145ZM6.70645 8.63359C7.0192 8.63359 7.28485 8.52424 7.5034 8.30554C7.7221 8.08684 7.83144 7.82119 7.83144 7.50859C7.83144 7.19584 7.7221 6.93012 7.5034 6.71142C7.28485 6.49287 7.0192 6.38359 6.70645 6.38359C6.3937 6.38359 6.12805 6.49287 5.9095 6.71142C5.6908 6.93012 5.58145 7.19584 5.58145 7.50859C5.58145 7.82119 5.6908 8.08684 5.9095 8.30554C6.12805 8.52424 6.3937 8.63359 6.70645 8.63359ZM9.2818 17.2873H11.4868L7.51307 9.89697C7.46687 9.92577 7.39412 9.95029 7.29482 9.97054C7.19567 9.99079 7.11145 9.99514 7.04215 9.98359L9.2818 17.2873Z" fill="#191C1C"/>
</svg>
