<svg width="24" height="24" viewBox="0 0 24 24" fill="none" xmlns="http://www.w3.org/2000/svg">
<path d="M6.02583 19.6C5.57118 19.6 5.18635 19.4425 4.87135 19.1275C4.55635 18.8125 4.39885 18.4277 4.39885 17.973V14.927C4.39885 14.4723 4.55635 14.0875 4.87135 13.7725C5.18635 13.4575 5.57118 13.3 6.02583 13.3H14.9739V9.69999H16.3238V13.3H18.0719C18.5265 13.3 18.9114 13.4575 19.2263 13.7725C19.5413 14.0875 19.6988 14.4723 19.6988 14.927V17.973C19.6988 18.4277 19.5413 18.8125 19.2263 19.1275C18.9114 19.4425 18.5265 19.6 18.0719 19.6H6.02583ZM6.02583 18.25H18.0719C18.1527 18.25 18.2191 18.224 18.271 18.1721C18.3229 18.1202 18.3489 18.0539 18.3489 17.973V14.927C18.3489 14.8461 18.3229 14.7797 18.271 14.7278C18.2191 14.6759 18.1527 14.65 18.0719 14.65H6.02583C5.94498 14.65 5.8786 14.6759 5.8267 14.7278C5.7748 14.7797 5.74885 14.8461 5.74885 14.927V17.973C5.74885 18.0539 5.7748 18.1202 5.8267 18.1721C5.8786 18.224 5.94498 18.25 6.02583 18.25ZM7.54885 17.246C7.77505 17.246 7.96428 17.1699 8.11653 17.0177C8.26878 16.8654 8.3449 16.6762 8.3449 16.45C8.3449 16.2238 8.26878 16.0346 8.11653 15.8823C7.96428 15.7301 7.77505 15.6539 7.54885 15.6539C7.32265 15.6539 7.13343 15.7301 6.98118 15.8823C6.82893 16.0346 6.7528 16.2238 6.7528 16.45C6.7528 16.6762 6.82893 16.8654 6.98118 17.0177C7.13343 17.1699 7.32265 17.246 7.54885 17.246ZM10.6989 17.246C10.9251 17.246 11.1143 17.1699 11.2665 17.0177C11.4188 16.8654 11.4949 16.6762 11.4949 16.45C11.4949 16.2238 11.4188 16.0346 11.2665 15.8823C11.1143 15.7301 10.9251 15.6539 10.6989 15.6539C10.4727 15.6539 10.2834 15.7301 10.1312 15.8823C9.97892 16.0346 9.9028 16.2238 9.9028 16.45C9.9028 16.6762 9.97892 16.8654 10.1312 17.0177C10.2834 17.1699 10.4727 17.246 10.6989 17.246ZM13.8489 17.246C14.0751 17.246 14.2643 17.1699 14.4165 17.0177C14.5688 16.8654 14.6449 16.6762 14.6449 16.45C14.6449 16.2238 14.5688 16.0346 14.4165 15.8823C14.2643 15.7301 14.0751 15.6539 13.8489 15.6539C13.6227 15.6539 13.4334 15.7301 13.2812 15.8823C13.1289 16.0346 13.0528 16.2238 13.0528 16.45C13.0528 16.6762 13.1289 16.8654 13.2812 17.0177C13.4334 17.1699 13.6227 17.246 13.8489 17.246ZM13.9181 8.64429L12.9419 7.66802C13.3319 7.30802 13.7496 7.03172 14.1951 6.83912C14.6405 6.64637 15.125 6.54999 15.6488 6.54999C16.1727 6.54999 16.6572 6.64637 17.1026 6.83912C17.5481 7.03172 17.9658 7.30802 18.3558 7.66802L17.3795 8.64429C17.1466 8.41119 16.8873 8.22887 16.6017 8.09732C16.3161 7.96577 15.9985 7.89999 15.6488 7.89999C15.2992 7.89999 14.9816 7.96577 14.696 8.09732C14.4104 8.22887 14.1511 8.41119 13.9181 8.64429ZM11.6681 6.39429L10.7196 5.44569C11.3623 4.80309 12.1028 4.30149 12.941 3.94089C13.7793 3.58029 14.6819 3.39999 15.6488 3.39999C16.6158 3.39999 17.5184 3.58029 18.3567 3.94089C19.1949 4.30149 19.9354 4.80309 20.5782 5.44569L19.6295 6.39429C19.1345 5.89929 18.5493 5.50149 17.8739 5.20089C17.1983 4.90029 16.4566 4.74999 15.6488 4.74999C14.8411 4.74999 14.0994 4.90029 13.4238 5.20089C12.7484 5.50149 12.1631 5.89929 11.6681 6.39429Z" fill="#191C1C"/>
</svg>
