<svg width="24" height="24" viewBox="0 0 24 24" fill="none" xmlns="http://www.w3.org/2000/svg">
<path d="M3.45 9.73076V6.18273C3.45 5.72808 3.6075 5.34326 3.9225 5.02826C4.2375 4.71326 4.62232 4.55576 5.07697 4.55576H18.923C19.3777 4.55576 19.7625 4.71326 20.0775 5.02826C20.3925 5.34326 20.55 5.72808 20.55 6.18273V9.73076H19.2V6.18273C19.2 6.11343 19.1711 6.04998 19.1134 5.99238C19.0558 5.93463 18.9923 5.90576 18.923 5.90576H5.07697C5.00767 5.90576 4.94422 5.93463 4.88662 5.99238C4.82887 6.04998 4.8 6.11343 4.8 6.18273V9.73076H3.45ZM5.07697 17.1558C4.62232 17.1558 4.2375 16.9983 3.9225 16.6833C3.6075 16.3683 3.45 15.9834 3.45 15.5288V11.0808H4.8V15.5288C4.8 15.5981 4.82887 15.6616 4.88662 15.7194C4.94422 15.777 5.00767 15.8058 5.07697 15.8058H18.923C18.9923 15.8058 19.0558 15.777 19.1134 15.7194C19.1711 15.6616 19.2 15.5981 19.2 15.5288V11.0808H20.55V15.5288C20.55 15.9834 20.3925 16.3683 20.0775 16.6833C19.7625 16.9983 19.3777 17.1558 18.923 17.1558H5.07697ZM2.44627 19.4058V18.0558H21.5537V19.4058H2.44627ZM3.45 11.0808V9.73076H8.4C8.52465 9.73076 8.64322 9.76421 8.75572 9.83111C8.86822 9.89816 8.95327 9.98936 9.01087 10.1047L10.2675 12.604L13.2168 7.37703C13.2744 7.27083 13.3549 7.18946 13.4582 7.13291C13.5614 7.07636 13.6753 7.04808 13.8 7.04808C13.9246 7.04808 14.0432 7.07636 14.1557 7.13291C14.2682 7.18946 14.3533 7.28006 14.4109 7.40471L15.5741 9.73076H20.55V11.0808H15.2366C15.0889 11.0808 14.9472 11.0424 14.8116 10.9658C14.676 10.889 14.5736 10.7767 14.5045 10.629L13.755 9.12506L10.7971 14.3347C10.7394 14.4501 10.6543 14.5365 10.5418 14.5941C10.4293 14.6519 10.3107 14.6808 10.186 14.6808C10.0615 14.6808 9.94537 14.6473 9.83752 14.5804C9.72952 14.5135 9.64672 14.4224 9.58912 14.307L7.97587 11.0808H3.45Z" fill="#191C1C"/>
</svg>
