<svg width="13" height="18" viewBox="0 0 13 18" fill="none" xmlns="http://www.w3.org/2000/svg">
<path d="M10 8.16669C10.0316 8.16669 10.0631 8.16634 10.0945 8.16564L10.95 8.88335C11.3083 9.18335 11.35 9.70835 11.0583 10.0584C10.9333 10.2084 10.7583 10.3084 10.5833 10.3417L7.95 10.8584L9.78333 14.8C10 15.2167 9.8 15.7084 9.38333 15.9L6.36667 17.3084C5.95 17.5084 5.45 17.3334 5.25833 16.9167L3.44167 12.9667L1.35 14.65C1.20833 14.7667 1.03333 14.8334 0.833333 14.8334C0.61232 14.8334 0.400358 14.7456 0.244078 14.5893C0.0877976 14.433 0 14.221 0 14V1.50002C0 1.27901 0.0877976 1.06705 0.244078 0.910765C0.400358 0.754484 0.61232 0.666687 0.833333 0.666687C1.03333 0.666687 1.225 0.741687 1.36667 0.858354L1.375 0.85002L5.88069 4.63025C6.18446 6.63238 7.91305 8.16669 10 8.16669Z" fill="#006A6A"/>
<path d="M12.5 4.83335H10.8333V6.50002H9.16667V4.83335H7.5V3.16669H9.16667V1.50002H10.8333V3.16669H12.5V4.83335Z" fill="#006A6A"/>
</svg>
