<svg width="24" height="24" viewBox="0 0 24 24" fill="none" xmlns="http://www.w3.org/2000/svg">
<path fill-rule="evenodd" clip-rule="evenodd" d="M9.875 2.875C9.29167 3.45833 9 4.16667 9 5C9 5.83333 9.29167 6.54167 9.875 7.125C10.2747 7.52466 10.733 7.78741 11.25 7.91325L11.25 9.08675C10.733 9.21259 10.2747 9.47534 9.875 9.875C9.29167 10.4583 9 11.1667 9 12C9 12.8333 9.29167 13.5417 9.875 14.125C10.2747 14.5247 10.733 14.7874 11.25 14.9132L11.25 16.0868C10.733 16.2126 10.2747 16.4753 9.875 16.875C9.29167 17.4583 9 18.1667 9 19C9 19.8333 9.29167 20.5417 9.875 21.125C10.4583 21.7083 11.1667 22 12 22C12.8333 22 13.5417 21.7083 14.125 21.125C14.7083 20.5417 15 19.8333 15 19C15 18.1667 14.7083 17.4583 14.125 16.875C13.7253 16.4753 13.267 16.2126 12.75 16.0868L12.75 14.9132C13.267 14.7874 13.7253 14.5247 14.125 14.125C14.7083 13.5417 15 12.8333 15 12C15 11.1667 14.7083 10.4583 14.125 9.875C13.7253 9.47534 13.267 9.21259 12.75 9.08675L12.75 7.91325C13.267 7.78741 13.7253 7.52466 14.125 7.125C14.7083 6.54167 15 5.83333 15 5C15 4.16667 14.7083 3.45833 14.125 2.875C13.5417 2.29167 12.8333 2 12 2C11.1667 2 10.4583 2.29167 9.875 2.875Z" fill="#3F4948"/>
</svg>
