<svg width="18" height="14" viewBox="0 0 18 14" fill="none" xmlns="http://www.w3.org/2000/svg">
<path opacity="0.38" d="M7.33334 13.125V8.375L8.5 5.04167C8.56945 4.88889 8.67014 4.76042 8.80209 4.65625C8.93403 4.55209 9.09722 4.5 9.29167 4.5H15.375C15.5694 4.5 15.7326 4.55209 15.8646 4.65625C15.9965 4.76042 16.0972 4.88889 16.1667 5.04167L17.3333 8.375V13.125C17.3333 13.2778 17.2813 13.4063 17.1771 13.5104C17.0729 13.6146 16.9444 13.6667 16.7917 13.6667H16.2083C16.0556 13.6667 15.9271 13.6146 15.8229 13.5104C15.7188 13.4063 15.6667 13.2778 15.6667 13.125V12.4167H9V13.125C9 13.2778 8.94792 13.4063 8.84375 13.5104C8.73959 13.6146 8.61111 13.6667 8.45834 13.6667H7.875C7.72222 13.6667 7.59375 13.6146 7.48959 13.5104C7.38542 13.4063 7.33334 13.2778 7.33334 13.125ZM9 7.41667H15.6667L15.0833 5.75H9.58334L9 7.41667ZM9.83334 10.75C10.0694 10.75 10.2674 10.6701 10.4271 10.5104C10.5868 10.3507 10.6667 10.1528 10.6667 9.91667C10.6667 9.68056 10.5868 9.48264 10.4271 9.32292C10.2674 9.1632 10.0694 9.08333 9.83334 9.08333C9.59722 9.08333 9.39931 9.1632 9.23959 9.32292C9.07986 9.48264 9 9.68056 9 9.91667C9 10.1528 9.07986 10.3507 9.23959 10.5104C9.39931 10.6701 9.59722 10.75 9.83334 10.75ZM14.8333 10.75C15.0694 10.75 15.2674 10.6701 15.4271 10.5104C15.5868 10.3507 15.6667 10.1528 15.6667 9.91667C15.6667 9.68056 15.5868 9.48264 15.4271 9.32292C15.2674 9.1632 15.0694 9.08333 14.8333 9.08333C14.5972 9.08333 14.3993 9.1632 14.2396 9.32292C14.0799 9.48264 14 9.68056 14 9.91667C14 10.1528 14.0799 10.3507 14.2396 10.5104C14.3993 10.6701 14.5972 10.75 14.8333 10.75ZM2.33333 13.6667V12.8333L3.16667 12C2.47222 12 1.88195 11.7569 1.39583 11.2708C0.909724 10.7847 0.666668 10.1944 0.666668 9.5V2.83334C0.666668 1.91667 1.07639 1.27084 1.89583 0.895836C2.71528 0.520836 4.11111 0.333336 6.08334 0.333336C8.13889 0.333336 9.55556 0.513891 10.3333 0.875003C11.1111 1.23611 11.5 1.88889 11.5 2.83334V3.66667H9.83334V2.83334H2.33333V7.83334H6.5V13.6667H2.33333ZM3.16667 10.3333C3.40278 10.3333 3.6007 10.2535 3.76042 10.0938C3.92014 9.93403 4 9.73611 4 9.5C4 9.26389 3.92014 9.06597 3.76042 8.90625C3.6007 8.74653 3.40278 8.66667 3.16667 8.66667C2.93056 8.66667 2.73264 8.74653 2.57292 8.90625C2.4132 9.06597 2.33333 9.26389 2.33333 9.5C2.33333 9.73611 2.4132 9.93403 2.57292 10.0938C2.73264 10.2535 2.93056 10.3333 3.16667 10.3333Z" fill="#191C1C"/>
</svg>
