<svg width="18" height="18" viewBox="0 0 18 18" fill="none" xmlns="http://www.w3.org/2000/svg">
<g clip-path="url(#clip0_180_2178)">
<path fill-rule="evenodd" clip-rule="evenodd" d="M4.5 8.25C6.57 8.25 8.25 6.57 8.25 4.5C8.25 2.43 6.57 0.75 4.5 0.75C2.43 0.75 0.75 2.43 0.75 4.5C0.75 6.57 2.43 8.25 4.5 8.25ZM4.5 2.25C5.7375 2.25 6.75 3.2625 6.75 4.5C6.75 5.7375 5.7375 6.75 4.5 6.75C3.2625 6.75 2.25 5.7375 2.25 4.5C2.25 3.2625 3.2625 2.25 4.5 2.25Z" fill="#006A6A"/>
<path fill-rule="evenodd" clip-rule="evenodd" d="M15.75 10.5H12C11.175 10.5 10.5 11.175 10.5 12V15.75C10.5 16.575 11.175 17.25 12 17.25H15.75C16.575 17.25 17.25 16.575 17.25 15.75V12C17.25 11.175 16.575 10.5 15.75 10.5ZM15.75 15.75H12V12H15.75V15.75Z" fill="#006A6A"/>
<path d="M14.25 6C13.905 6 13.5825 5.9175 13.2825 5.775L5.775 13.2825C5.9175 13.5825 6 13.905 6 14.25C6 15.4875 4.9875 16.5 3.75 16.5C2.5125 16.5 1.5 15.4875 1.5 14.25C1.5 13.0125 2.5125 12 3.75 12C4.095 12 4.4175 12.0825 4.7175 12.225L12.225 4.7175C12.0825 4.4175 12 4.095 12 3.75C12 2.5125 13.0125 1.5 14.25 1.5C15.4875 1.5 16.5 2.5125 16.5 3.75C16.5 4.9875 15.4875 6 14.25 6Z" fill="#006A6A"/>
</g>
<defs>
<clipPath id="clip0_180_2178">
<rect width="18" height="18" fill="white"/>
</clipPath>
</defs>
</svg>
