<svg width="18" height="18" viewBox="0 0 18 18" fill="none" xmlns="http://www.w3.org/2000/svg">
<path d="M3 3H8.25V1.5H3C2.175 1.5 1.5 2.175 1.5 3V8.25H3V3ZM7.5 9.75L4.5 13.5H13.5L11.25 10.5L9.7275 12.5325L7.5 9.75ZM12.75 6.375C12.75 5.7525 12.2475 5.25 11.625 5.25C11.0025 5.25 10.5 5.7525 10.5 6.375C10.5 6.9975 11.0025 7.5 11.625 7.5C12.2475 7.5 12.75 6.9975 12.75 6.375ZM15 1.5H9.75V3H15V8.25H16.5V3C16.5 2.175 15.825 1.5 15 1.5ZM15 15H9.75V16.5H15C15.825 16.5 16.5 15.825 16.5 15V9.75H15V15ZM3 9.75H1.5V15C1.5 15.825 2.175 16.5 3 16.5H8.25V15H3V9.75Z" fill="#006A6A"/>
</svg>
