<svg width="48" height="48" viewBox="0 0 48 48" fill="none" xmlns="http://www.w3.org/2000/svg">
<path fill-rule="evenodd" clip-rule="evenodd" d="M24 3.78998C18.9135 3.78998 14.79 7.91344 14.79 13C14.79 15.9369 16.1647 18.5528 18.3058 20.2392L14.6851 26.1875C13.8356 25.929 12.9341 25.79 12 25.79C6.9135 25.79 2.79004 29.9134 2.79004 35C2.79004 40.0865 6.9135 44.21 12 44.21C16.3641 44.21 20.0193 41.1747 20.9695 37.1H27.0305C27.9808 41.1747 31.6359 44.21 36 44.21C41.0866 44.21 45.21 40.0865 45.21 35C45.21 29.9134 41.0866 25.79 36 25.79C35.066 25.79 34.1645 25.929 33.315 26.1875L29.6943 20.2392C31.8353 18.5528 33.21 15.9369 33.21 13C33.21 7.91344 29.0866 3.78998 24 3.78998ZM27.816 21.3847C26.6534 21.9147 25.3612 22.21 24 22.21C22.6389 22.21 21.3467 21.9147 20.1841 21.3847L16.7137 27.086C19.3798 28.6774 21.1742 31.5778 21.2095 34.9H26.7906C26.8259 31.5778 28.6202 28.6774 31.2864 27.086L27.816 21.3847ZM17.21 13C17.21 9.24996 20.25 6.20998 24 6.20998C27.7501 6.20998 30.79 9.24996 30.79 13C30.79 16.75 27.7501 19.79 24 19.79C20.25 19.79 17.21 16.75 17.21 13ZM5.21004 35C5.21004 31.25 8.25003 28.21 12 28.21C15.7501 28.21 18.79 31.25 18.79 35C18.79 38.75 15.7501 41.79 12 41.79C8.25003 41.79 5.21004 38.75 5.21004 35ZM36 28.21C32.25 28.21 29.21 31.25 29.21 35C29.21 38.75 32.25 41.79 36 41.79C39.75 41.79 42.79 38.75 42.79 35C42.79 31.25 39.75 28.21 36 28.21Z" fill="#191C1C"/>
</svg>
