<svg width="24" height="24" viewBox="0 0 24 24" fill="none" xmlns="http://www.w3.org/2000/svg">
<path fill-rule="evenodd" clip-rule="evenodd" d="M2.375 18.625C2.95833 19.2083 3.66667 19.5 4.5 19.5C5.16882 19.5 5.75713 19.3121 6.26492 18.9364C7.08051 19.6115 8.01715 20.1455 9.03743 20.501C9.13312 21.121 9.41231 21.6623 9.875 22.125C10.4583 22.7083 11.1667 23 12 23C12.8333 23 13.5417 22.7083 14.125 22.125C14.5877 21.6623 14.8669 21.121 14.9626 20.501C15.9828 20.1455 16.9195 19.6115 17.7351 18.9364C18.2429 19.3121 18.8312 19.5 19.5 19.5C20.3333 19.5 21.0417 19.2083 21.625 18.625C22.2083 18.0417 22.5 17.3333 22.5 16.5C22.5 15.6667 22.2083 14.9583 21.625 14.375C21.3793 14.1293 21.1114 13.9353 20.8214 13.7931C20.9385 13.2137 21 12.614 21 12C21 11.386 20.9385 10.7863 20.8214 10.2069C21.1114 10.0647 21.3793 9.8707 21.625 9.625C22.2083 9.04167 22.5 8.33333 22.5 7.5C22.5 6.66667 22.2083 5.95833 21.625 5.375C21.0417 4.79167 20.3333 4.5 19.5 4.5C18.8312 4.5 18.2429 4.68788 17.7351 5.06363C16.9195 4.38852 15.9829 3.85451 14.9626 3.49898C14.8669 2.87901 14.5877 2.33769 14.125 1.875C13.5417 1.29167 12.8333 1 12 1C11.1667 1 10.4583 1.29167 9.875 1.875C9.41231 2.33769 9.13312 2.87901 9.03743 3.49898C7.87616 3.90364 6.82325 4.53952 5.93384 5.35148C5.5061 5.11716 5.02816 5 4.5 5C3.66667 5 2.95833 5.29167 2.375 5.875C1.79167 6.45833 1.5 7.16667 1.5 8C1.5 8.83333 1.79167 9.54167 2.375 10.125C2.59783 10.3478 2.8389 10.5281 3.09821 10.6658C3.03352 11.1012 3 11.5467 3 12C3 12.614 3.06149 13.2137 3.17864 13.7931C2.88858 13.9353 2.6207 14.1293 2.375 14.375C1.79167 14.9583 1.5 15.6667 1.5 16.5C1.5 17.3333 1.79167 18.0417 2.375 18.625ZM9.19227 5.0895C8.40528 5.40957 7.68528 5.86018 7.05917 6.41444C7.35305 6.87999 7.5 7.40851 7.5 8C7.5 8.83333 7.20833 9.54167 6.625 10.125C6.0674 10.6826 5.39558 10.9737 4.60956 10.9983C4.56557 11.3259 4.54286 11.6603 4.54286 12C4.54286 12.5157 4.59521 13.0192 4.69489 13.5054C5.44431 13.5478 6.08768 13.8377 6.625 14.375C7.20833 14.9583 7.5 15.6667 7.5 16.5C7.5 16.9511 7.41452 17.3657 7.24355 17.7435C7.82526 18.2258 8.48144 18.6214 9.19227 18.9105C9.33753 18.5301 9.56511 18.1849 9.875 17.875C10.4583 17.2917 11.1667 17 12 17C12.8333 17 13.5417 17.2917 14.125 17.875C14.4349 18.1849 14.6625 18.5301 14.8077 18.9105C15.5186 18.6214 16.1747 18.2258 16.7565 17.7435C16.5855 17.3657 16.5 16.9511 16.5 16.5C16.5 15.6667 16.7917 14.9583 17.375 14.375C17.9123 13.8377 18.5557 13.5478 19.3051 13.5054C19.4048 13.0192 19.4571 12.5157 19.4571 12C19.4571 11.4843 19.4048 10.9808 19.3051 10.4946C18.5557 10.4522 17.9123 10.1623 17.375 9.625C16.7917 9.04167 16.5 8.33333 16.5 7.5C16.5 7.04885 16.5855 6.63435 16.7565 6.25647C16.1747 5.77419 15.5186 5.3786 14.8077 5.0895C14.6625 5.46994 14.4349 5.81511 14.125 6.125C13.5417 6.70833 12.8333 7 12 7C11.1667 7 10.4583 6.70833 9.875 6.125C9.56511 5.81511 9.33753 5.46994 9.19227 5.0895Z" fill="#3F4948"/>
</svg>
