<svg width="20" height="20" viewBox="0 0 20 20" fill="none" xmlns="http://www.w3.org/2000/svg">
<g clip-path="url(#clip0_180_2160)">
<path d="M15 20H9.54166C8.64165 20 7.75832 19.625 7.13332 18.975L1.04999 12.6333L2.77499 11.1083C3.29165 10.65 4.04999 10.5583 4.65832 10.8833L6.66666 11.95V3.99163C6.66666 2.84163 7.59999 1.9083 8.74999 1.9083C8.89165 1.9083 9.03332 1.92497 9.17499 1.94997C9.24999 0.866634 10.15 0.00830078 11.25 0.00830078C11.9667 0.00830078 12.5917 0.366634 12.9667 0.916634C13.2083 0.816634 13.475 0.766634 13.75 0.766634C14.9 0.766634 15.8333 1.69997 15.8333 2.84997V3.0833C15.9667 3.0583 16.1083 3.04163 16.25 3.04163C17.4 3.04163 18.3333 3.97497 18.3333 5.12497V16.6666C18.3333 18.5083 16.8417 20 15 20ZM3.44999 12.7333L8.33332 17.8166C8.64999 18.1416 9.08332 18.3333 9.53332 18.3333H15C15.9167 18.3333 16.6667 17.5833 16.6667 16.6666V5.12497C16.6667 4.89163 16.4833 4.7083 16.25 4.7083C16.0167 4.7083 15.8333 4.89163 15.8333 5.12497V9.99997H14.1667V2.84997C14.1667 2.61663 13.9833 2.4333 13.75 2.4333C13.5167 2.4333 13.3333 2.61663 13.3333 2.84997V9.99997H11.6667V2.09163C11.6667 1.8583 11.4833 1.67497 11.25 1.67497C11.0167 1.67497 10.8333 1.8583 10.8333 2.09163V9.99997H9.16666V3.99163C9.16666 3.7583 8.98332 3.57497 8.74999 3.57497C8.51665 3.57497 8.33332 3.76663 8.33332 3.99163V14.7166L3.87499 12.3583L3.44999 12.7333Z" fill="#3F4948"/>
</g>
<defs>
<clipPath id="clip0_180_2160">
<rect width="20" height="20" fill="white"/>
</clipPath>
</defs>
</svg>
