<svg width="24" height="24" viewBox="0 0 24 24" fill="none" xmlns="http://www.w3.org/2000/svg">
<path fill-rule="evenodd" clip-rule="evenodd" d="M4.25 7.91325C3.73299 7.78741 3.27466 7.52466 2.875 7.125C2.29167 6.54167 2 5.83333 2 5C2 4.16667 2.29167 3.45833 2.875 2.875C3.45833 2.29167 4.16667 2 5 2C5.83333 2 6.54167 2.29167 7.125 2.875C7.52467 3.27467 7.78743 3.73303 7.91326 4.25006H9.08674C9.21257 3.73303 9.47533 3.27467 9.875 2.875C10.4583 2.29167 11.1667 2 12 2C12.8333 2 13.5417 2.29167 14.125 2.875C14.5247 3.27467 14.7874 3.73303 14.9133 4.25006H16.0867C16.2126 3.73303 16.4753 3.27467 16.875 2.875C17.4583 2.29167 18.1667 2 19 2C19.8333 2 20.5417 2.29167 21.125 2.875C21.7083 3.45833 22 4.16667 22 5C22 5.83333 21.7083 6.54167 21.125 7.125C20.7253 7.52466 20.267 7.78741 19.75 7.91325V9.08675C20.267 9.21259 20.7253 9.47534 21.125 9.875C21.7083 10.4583 22 11.1667 22 12C22 12.8333 21.7083 13.5417 21.125 14.125C20.7253 14.5247 20.267 14.7874 19.75 14.9132V16.0868C20.267 16.2126 20.7253 16.4753 21.125 16.875C21.7083 17.4583 22 18.1667 22 19C22 19.8333 21.7083 20.5417 21.125 21.125C20.5417 21.7083 19.8333 22 19 22C18.1667 22 17.4583 21.7083 16.875 21.125C16.4754 20.7254 16.2126 20.267 16.0868 19.7501H14.9132C14.7874 20.267 14.5246 20.7254 14.125 21.125C13.5417 21.7083 12.8333 22 12 22C11.1667 22 10.4583 21.7083 9.875 21.125C9.47536 20.7254 9.21261 20.267 9.08677 19.7501H7.91323C7.78739 20.267 7.52464 20.7254 7.125 21.125C6.54167 21.7083 5.83333 22 5 22C4.16667 22 3.45833 21.7083 2.875 21.125C2.29167 20.5417 2 19.8333 2 19C2 18.1667 2.29167 17.4583 2.875 16.875C3.27466 16.4753 3.73299 16.2126 4.25 16.0868V14.9132C3.73299 14.7874 3.27466 14.5247 2.875 14.125C2.29167 13.5417 2 12.8333 2 12C2 11.1667 2.29167 10.4583 2.875 9.875C3.27466 9.47534 3.73299 9.21259 4.25 9.08675V7.91325ZM16.875 7.125C17.2747 7.52466 17.733 7.78741 18.25 7.91325V9.08675C17.733 9.21259 17.2747 9.47534 16.875 9.875C16.4753 10.2747 16.2126 10.733 16.0867 11.2501H14.9133C14.7874 10.733 14.5247 10.2747 14.125 9.875C13.7253 9.47534 13.267 9.21259 12.75 9.08675V7.91325C13.267 7.78741 13.7253 7.52466 14.125 7.125C14.5246 6.72536 14.7874 6.26704 14.9132 5.75006H16.0868C16.2126 6.26704 16.4754 6.72536 16.875 7.125ZM11.25 7.91325C10.733 7.78741 10.2747 7.52466 9.875 7.125C9.47536 6.72536 9.21261 6.26704 9.08677 5.75006H7.91323C7.78739 6.26704 7.52464 6.72536 7.125 7.125C6.72534 7.52466 6.26701 7.78741 5.75 7.91325V9.08675C6.26701 9.21259 6.72534 9.47534 7.125 9.875C7.52467 10.2747 7.78743 10.733 7.91326 11.2501H9.08674C9.21257 10.733 9.47533 10.2747 9.875 9.875C10.2747 9.47534 10.733 9.21259 11.25 9.08675V7.91325ZM11.25 14.9132C10.733 14.7874 10.2747 14.5247 9.875 14.125C9.47536 13.7254 9.21261 13.267 9.08677 12.7501H7.91323C7.78739 13.267 7.52464 13.7254 7.125 14.125C6.72534 14.5247 6.26701 14.7874 5.75 14.9132V16.0868C6.26701 16.2126 6.72534 16.4753 7.125 16.875C7.52467 17.2747 7.78743 17.733 7.91326 18.2501H9.08674C9.21257 17.733 9.47533 17.2747 9.875 16.875C10.2747 16.4753 10.733 16.2126 11.25 16.0868V14.9132ZM12.75 16.0868C13.267 16.2126 13.7253 16.4753 14.125 16.875C14.5247 17.2747 14.7874 17.733 14.9133 18.2501H16.0867C16.2126 17.733 16.4753 17.2747 16.875 16.875C17.2747 16.4753 17.733 16.2126 18.25 16.0868V14.9132C17.733 14.7874 17.2747 14.5247 16.875 14.125C16.4754 13.7254 16.2126 13.267 16.0868 12.7501H14.9132C14.7874 13.267 14.5246 13.7254 14.125 14.125C13.7253 14.5247 13.267 14.7874 12.75 14.9132V16.0868Z" fill="black"/>
</svg>
