<svg width="24" height="24" viewBox="0 0 24 24" fill="none" xmlns="http://www.w3.org/2000/svg">
<path d="M5.25 19.65V15.5809C5.25 15.1333 5.4093 14.7506 5.7279 14.4327C6.0465 14.1147 6.42953 13.9557 6.87698 13.9557H17.123C17.5705 13.9557 17.9535 14.115 18.2721 14.4336C18.5907 14.7522 18.75 15.1352 18.75 15.5827V19.65H5.25ZM9.42982 12.7097C8.27347 12.7097 7.28775 12.3021 6.47265 11.487C5.65755 10.6719 5.25 9.68618 5.25 8.52983C5.25 7.37348 5.65755 6.38776 6.47265 5.57266C7.28775 4.75756 8.27347 4.35001 9.42982 4.35001H14.5702C15.7265 4.35001 16.7122 4.75756 17.5273 5.57266C18.3425 6.38776 18.75 7.37348 18.75 8.52983C18.75 9.68618 18.3425 10.6719 17.5273 11.487C16.7122 12.3021 15.7265 12.7097 14.5702 12.7097H9.42982ZM6.6 18.3H17.4V15.5827C17.4 15.502 17.3741 15.4356 17.3222 15.3836C17.2703 15.3317 17.2039 15.3057 17.123 15.3057H6.87698C6.79613 15.3057 6.72975 15.3317 6.67785 15.3836C6.62595 15.4356 6.6 15.502 6.6 15.5827V18.3ZM9.42982 11.3597H14.5702C15.3605 11.3597 16.0298 11.0856 16.5779 10.5375C17.126 9.98941 17.4 9.32018 17.4 8.52983C17.4 7.73948 17.126 7.07026 16.5779 6.52216C16.0298 5.97406 15.3605 5.70001 14.5702 5.70001H9.42982C8.63947 5.70001 7.97025 5.97406 7.42215 6.52216C6.87405 7.07026 6.6 7.73948 6.6 8.52983C6.6 9.32018 6.87405 9.98941 7.42215 10.5375C7.97025 11.0856 8.63947 11.3597 9.42982 11.3597ZM9.4296 9.30856C9.6501 9.30856 9.83505 9.23401 9.98445 9.08491C10.1339 8.93566 10.2086 8.75071 10.2086 8.53006C10.2086 8.30956 10.134 8.12461 9.9849 7.97521C9.83565 7.82566 9.6507 7.75088 9.43005 7.75088C9.20955 7.75088 9.0246 7.82551 8.8752 7.97476C8.72565 8.12401 8.65088 8.30896 8.65088 8.52961C8.65088 8.75011 8.7255 8.93506 8.87475 9.08446C9.024 9.23386 9.20895 9.30856 9.4296 9.30856ZM14.57 9.30856C14.7905 9.30856 14.9754 9.23401 15.1248 9.08491C15.2744 8.93566 15.3491 8.75071 15.3491 8.53006C15.3491 8.30956 15.2745 8.12461 15.1253 7.97521C14.976 7.82566 14.791 7.75088 14.5704 7.75088C14.3499 7.75088 14.165 7.82551 14.0156 7.97476C13.8662 8.12401 13.7915 8.30896 13.7915 8.52961C13.7915 8.75011 13.866 8.93506 14.0151 9.08446C14.1644 9.23386 14.3493 9.30856 14.57 9.30856Z" fill="#191C1C"/>
</svg>
