<svg width="24" height="24" viewBox="0 0 24 24" fill="none" xmlns="http://www.w3.org/2000/svg">
<path d="M9.41877 21.625C9.19827 21.625 9.01047 21.5474 8.85537 21.3921C8.70012 21.237 8.6225 21.0492 8.6225 20.8287V10.2713C8.6225 10.0508 8.70012 9.86298 8.85537 9.70788C9.01047 9.55262 9.19827 9.475 9.41877 9.475H14.5762C14.7967 9.475 14.9845 9.55262 15.1396 9.70788C15.2949 9.86298 15.3725 10.0508 15.3725 10.2713V20.8287C15.3725 21.0492 15.2949 21.237 15.1396 21.3921C14.9845 21.5474 14.7967 21.625 14.5762 21.625H9.41877ZM11.9975 13.7847C12.2547 13.7847 12.4749 13.6932 12.6579 13.5104C12.8407 13.3274 12.9321 13.1073 12.9321 12.85C12.9321 12.5928 12.8407 12.3726 12.6579 12.1896C12.4749 12.0068 12.2547 11.9153 11.9975 11.9153C11.7402 11.9153 11.5201 12.0068 11.3371 12.1896C11.1543 12.3726 11.0628 12.5928 11.0628 12.85C11.0628 13.1073 11.1543 13.3274 11.3371 13.5104C11.5201 13.6932 11.7402 13.7847 11.9975 13.7847ZM8.81982 7.54338L7.87145 6.595C8.4368 6.0643 9.0731 5.66162 9.78035 5.38698C10.4877 5.11233 11.2268 4.975 11.9975 4.975C12.7682 4.975 13.5072 5.11233 14.2146 5.38698C14.9219 5.66162 15.5582 6.0643 16.1235 6.595L15.1752 7.54338C14.7345 7.14303 14.2418 6.83987 13.6971 6.63392C13.1525 6.42797 12.5859 6.325 11.9975 6.325C11.409 6.325 10.8425 6.42797 10.2978 6.63392C9.7532 6.83987 9.26052 7.14303 8.81982 7.54338ZM6.2825 5.02338L5.30645 4.03C6.2168 3.17845 7.24685 2.5231 8.3966 2.06395C9.5465 1.60465 10.7468 1.375 11.9975 1.375C13.2425 1.375 14.4399 1.60607 15.5896 2.06822C16.7395 2.53038 17.7575 3.1993 18.6435 4.075L17.7125 5.02338C16.9452 4.27233 16.0695 3.7015 15.0852 3.3109C14.101 2.9203 13.0718 2.725 11.9975 2.725C10.9232 2.725 9.89397 2.9203 8.90982 3.3109C7.92552 3.7015 7.04975 4.27233 6.2825 5.02338ZM9.9725 20.275H14.0225V10.825H9.9725V20.275Z" fill="#191C1C"/>
</svg>
